<svg version="1.1" id="Layer_1" xmlns="http://www.w3.org/2000/svg" xmlns:xlink="http://www.w3.org/1999/xlink" x="0px" y="0px"
	 width="100%" viewBox="0 0 352 267" enable-background="new 0 0 352 267" xml:space="preserve">
<path fill="#000000" opacity="1.000000" stroke="none" 
	d="
M353.000000,93.000000 
	C353.000000,151.666672 353.000000,209.833328 353.000000,268.000000 
	C235.666672,268.000000 118.333336,268.000000 1.000000,268.000000 
	C1.000000,179.000000 1.000000,90.000000 1.000000,1.000000 
	C118.333336,1.000000 235.666672,1.000000 353.000000,1.000000 
	C353.000000,31.500000 353.000000,62.000000 353.000000,93.000000 
M260.524780,67.875458 
	C260.687378,67.587433 260.850006,67.299408 261.620605,66.747368 
	C262.756134,65.187790 263.891663,63.628216 265.645264,61.823811 
	C267.452698,59.884209 269.260132,57.944607 271.544250,55.898819 
	C271.850189,55.714569 272.010284,55.444016 272.525146,54.903461 
	C272.698242,54.606232 272.871307,54.309006 273.670685,53.698586 
	C276.695435,49.976059 279.866425,46.464317 285.668945,45.953266 
	C286.101868,45.910645 286.534790,45.868023 287.772095,45.973541 
	C288.858063,45.927681 289.944000,45.881817 291.608276,46.110508 
	C292.379700,46.729248 293.151123,47.347988 293.459351,48.117294 
	C293.615692,48.415787 293.772034,48.714279 294.001038,49.945995 
	C294.060608,71.296707 294.120209,92.647423 294.040802,114.894646 
	C294.078522,117.912949 294.116211,120.931252 293.978882,124.880264 
	C294.056641,147.266495 294.134399,169.652725 293.867554,192.712311 
	C291.396881,202.186356 286.032959,209.176102 276.387177,212.824814 
	C284.866364,213.107590 293.352905,217.709045 301.696136,210.776566 
	C311.217468,205.875366 315.131683,197.948410 314.994141,187.394760 
	C314.779755,170.945480 314.981812,154.491028 314.925018,138.039047 
	C314.919067,136.326843 314.357147,134.616547 314.006561,132.117859 
	C313.941650,131.071259 313.876740,130.024673 313.940430,128.118698 
	C313.966919,126.099709 313.993408,124.080727 314.667908,121.655998 
	C314.476868,119.764496 314.285828,117.872986 313.994904,115.343346 
	C313.998779,114.913078 314.002655,114.482819 314.687836,113.635132 
	C314.707916,111.772316 314.727997,109.909508 314.882935,107.104141 
	C314.926605,93.532974 315.001587,79.961731 314.969910,66.390747 
	C314.966400,64.876823 314.356659,63.364307 313.983704,61.413532 
	C313.983704,61.413532 313.825562,61.003105 313.964203,60.213432 
	C313.914154,59.149403 313.864075,58.085369 313.968933,56.200062 
	C313.920105,54.810997 313.871277,53.421928 313.975037,51.205971 
	C314.444611,47.364582 316.207947,43.414497 312.995941,39.147156 
	C311.349060,36.431049 309.702179,33.714943 308.050751,30.954901 
	C308.050751,30.954901 308.006653,30.952278 307.882080,30.473545 
	C307.692749,30.162271 307.415924,30.007412 307.048309,29.956352 
	C307.048309,29.956352 306.995636,29.958815 306.802734,29.408800 
	C306.214294,28.909428 305.625824,28.410055 304.677216,27.250349 
	C301.215271,25.937075 297.758820,23.531017 294.290344,23.513540 
	C283.488190,23.459106 272.781891,24.662054 263.212494,32.050121 
	C257.764404,34.674717 254.484634,39.520428 250.456650,44.152020 
	C250.163101,44.332554 250.028564,44.594799 249.950668,44.950836 
	C249.950668,44.950836 249.958664,45.053612 249.328613,45.295433 
	C245.872833,49.504784 242.417068,53.714134 238.356247,58.230965 
	C236.892883,60.121197 235.429535,62.011429 233.482925,64.065903 
	C233.313080,64.347206 233.143234,64.628510 232.269226,65.025688 
	C221.718552,76.399956 211.167862,87.774223 200.300842,99.217697 
	C200.300842,99.217697 200.184387,99.519875 199.719513,99.879562 
	C199.452667,100.573662 199.185837,101.267761 198.448059,102.114532 
	C198.155670,102.310501 197.982422,102.582390 197.442459,103.077843 
	C197.275970,103.359703 197.109482,103.641563 196.324554,104.189285 
	C193.960709,106.886627 191.514893,109.517227 189.251602,112.296463 
	C185.559937,116.829712 182.194199,121.711555 175.253098,123.027306 
	C173.831558,122.742073 172.410019,122.456841 170.357071,121.876709 
	C167.943207,119.571205 165.529343,117.265701 162.812607,114.336746 
	C158.548233,110.185234 154.283859,106.033714 149.785767,101.266548 
	C147.203430,98.806969 144.621094,96.347397 141.791458,93.283928 
	C139.889252,91.506660 137.987045,89.729393 135.803909,87.347664 
	C134.190628,85.623215 132.577332,83.898758 130.386566,81.839584 
	C129.625229,81.203880 128.863907,80.568176 127.996605,79.457161 
	C127.996605,79.457161 127.830544,78.999367 127.872627,78.489334 
	C127.597496,78.311195 127.322365,78.133057 126.821014,77.409744 
	C126.218452,76.923630 125.615898,76.437515 124.954185,75.238174 
	C121.333473,73.140373 117.712769,71.042572 113.571846,68.255234 
	C111.095032,68.171875 108.596397,68.269196 106.145294,67.973030 
	C96.876060,66.853027 85.891266,76.975143 87.986618,89.772705 
	C88.046417,99.184479 88.106216,108.596260 88.036018,118.858238 
	C88.080116,120.574867 88.124214,122.291504 88.034134,124.897301 
	C88.076347,127.603165 88.118568,130.309021 88.032303,133.683075 
	C88.079376,134.131866 88.126450,134.580658 88.028351,135.947632 
	C88.072357,140.631714 88.116364,145.315811 88.026527,150.433136 
	C88.026527,150.433136 87.948181,150.879776 87.429977,151.066132 
	C87.602615,151.418015 87.775253,151.769897 88.008514,152.744034 
	C88.058327,153.156433 88.108147,153.568848 87.998199,154.838928 
	C87.719215,158.238220 87.440231,161.637512 87.018997,165.435837 
	C87.018997,165.435837 86.962219,165.855667 86.462830,166.048111 
	C86.359573,166.356415 86.256317,166.664734 86.045990,167.510056 
	C86.092354,167.686600 86.138725,167.863144 86.034012,168.781342 
	C84.761810,171.868317 83.489616,174.955276 81.934746,178.588104 
	C81.353409,179.390930 80.772079,180.193771 80.017120,181.648926 
	C79.307549,182.748459 78.597984,183.847977 77.273697,185.235657 
	C75.500748,186.481125 73.727798,187.726578 71.188293,189.100891 
	C67.159058,189.726776 63.129826,190.352646 58.726723,190.276672 
	C58.140728,188.498688 57.097557,186.733597 57.046944,184.940491 
	C56.813107,176.656250 56.855385,168.364212 56.932590,159.136673 
	C56.877178,142.435257 56.821766,125.733833 56.929108,108.103706 
	C56.936993,92.614502 56.881573,77.124886 56.983021,61.636292 
	C57.025333,55.176483 55.195435,48.231606 61.525665,42.938980 
	C61.525665,42.938980 61.968079,42.786251 62.618649,42.921551 
	C63.134163,42.611374 63.649677,42.301197 64.565086,41.944717 
	C64.565086,41.944717 64.946663,41.816422 65.889336,41.956696 
	C77.918266,41.920738 89.947205,41.884785 102.831535,41.971962 
	C104.556290,41.929531 106.281044,41.887104 108.870331,41.975685 
	C110.904785,41.923855 112.939240,41.872028 115.868050,41.940514 
	C118.259895,41.893990 120.651733,41.847466 123.937531,41.942287 
	C126.960754,41.906952 129.983978,41.871613 133.893539,41.977119 
	C136.589737,41.937504 139.285950,41.897884 142.914154,42.003242 
	C174.575882,41.957130 206.237625,41.922009 237.899216,41.827583 
	C239.268188,41.823505 240.635544,41.273521 242.664841,40.747478 
	C244.784088,37.552799 246.903351,34.358124 249.755371,31.023703 
	C252.220978,29.328777 254.686600,27.633850 257.152222,25.938925 
	C256.952332,25.263224 256.752472,24.587521 256.552612,23.911819 
	C253.043808,23.911819 249.535019,23.911819 246.002502,23.993044 
	C246.002502,23.993044 246.083832,24.016432 245.903275,23.525692 
	C245.602676,23.413799 245.302078,23.301905 244.118896,23.029524 
	C239.741684,23.411444 235.364487,23.793364 230.163879,24.032642 
	C228.774689,24.075537 227.385498,24.118431 225.115417,24.029356 
	C222.742126,24.072178 220.368835,24.115000 217.128967,24.026554 
	C215.092880,24.072905 213.056793,24.119255 210.272629,24.035149 
	C207.841339,24.084349 205.410049,24.133551 202.100937,24.044523 
	C199.733780,24.095856 197.366608,24.147188 194.261993,24.067589 
	C193.517456,24.110006 192.772919,24.152424 191.587708,24.025688 
	C191.587708,24.025688 191.119644,23.964857 190.645172,23.221073 
	C174.268768,23.150467 157.892380,23.071577 141.515900,23.046637 
	C140.989090,23.045834 140.461441,23.597471 139.073898,23.978342 
	C137.050247,24.041241 135.026596,24.104139 132.124557,24.021290 
	C129.752670,24.070314 127.380783,24.119339 124.088341,24.024088 
	C119.728104,24.082129 115.367867,24.140167 110.354050,23.872929 
	C109.224960,23.646715 108.095871,23.420502 106.066338,23.042715 
	C102.717079,23.087526 99.367821,23.132338 95.193390,23.020159 
	C93.805496,23.065289 92.417595,23.110418 90.096825,23.023947 
	C80.211365,23.022696 70.325562,22.980497 60.440804,23.063263 
	C58.915390,23.076038 57.394783,23.662567 55.238354,24.013969 
	C54.820877,24.071175 54.403397,24.128382 53.240093,24.052126 
	C42.065304,27.050779 36.516006,35.247757 36.219795,42.691597 
	C35.607708,58.073147 36.145103,73.500443 36.074833,89.849098 
	C36.116020,115.574249 36.157207,141.299393 36.066277,167.951736 
	C36.048500,176.072311 35.501331,184.241135 36.235497,192.293152 
	C36.604568,196.340973 39.302364,200.176437 41.088905,204.583344 
	C41.286541,204.887619 41.566807,205.042770 41.960388,205.058914 
	C41.960388,205.058914 41.964844,205.093857 42.031864,205.806244 
	C46.356419,208.200134 50.680977,210.594040 55.380947,213.637543 
	C59.523262,214.759857 63.665573,215.882187 68.224869,217.117508 
	C67.555298,216.082108 67.125061,215.588272 66.896187,215.014191 
	C66.671547,214.450745 66.651604,213.805695 66.577423,213.394043 
	C78.808624,211.636169 88.799629,206.075211 97.631050,196.817307 
	C99.077988,194.577942 100.524925,192.338577 102.597626,189.733276 
	C104.071022,186.518158 105.544411,183.303040 107.639824,179.746353 
	C108.442154,176.858566 109.244492,173.970795 110.691338,170.739212 
	C110.806480,168.525940 110.921616,166.312683 111.706680,163.759018 
	C111.749794,161.172226 111.792908,158.585419 111.978439,155.072342 
	C111.940163,149.385895 111.901886,143.699463 112.007065,137.083344 
	C111.929626,125.739502 111.852188,114.395668 111.968117,102.379166 
	C112.716850,101.288795 113.465576,100.198425 113.877464,99.598595 
	C115.229034,100.219872 116.102684,100.621452 117.282257,101.593010 
	C118.185951,102.329178 119.089645,103.065346 120.610489,104.133980 
	C122.037605,105.767090 123.464714,107.400200 125.166611,109.644173 
	C126.431847,110.458214 127.697075,111.272247 129.029648,112.776497 
	C130.328552,113.870316 131.627441,114.964142 133.036224,116.772209 
	C138.016434,121.867783 142.996628,126.963356 148.209381,132.654984 
	C149.467773,133.805664 150.726166,134.956345 152.232773,136.724457 
	C154.136688,138.190247 156.040604,139.656036 158.237579,141.765106 
	C163.495499,143.445435 168.753418,145.125763 174.800003,146.954132 
	C175.865906,146.907303 176.931808,146.860458 178.735107,146.947662 
	C181.156494,145.904892 183.577896,144.862122 186.716705,143.944077 
	C191.147125,140.656204 195.577545,137.368332 200.649475,133.829056 
	C203.448471,130.565063 206.247467,127.301086 209.674942,123.772522 
	C213.297867,119.826355 216.993500,115.942932 220.492081,111.889435 
	C221.355347,110.889252 221.577682,109.335876 222.667679,107.802711 
	C223.481644,106.885582 224.295609,105.968452 225.711380,104.784164 
	C227.822495,102.561073 229.933609,100.337982 232.661331,97.781059 
	C233.823944,96.512688 235.014664,95.268791 236.144196,93.971603 
	C240.472366,89.001106 244.780884,84.013496 249.801880,78.977959 
	C252.877808,75.674278 255.953751,72.370598 259.015930,69.034416 
	C259.015930,69.034416 259.035156,69.040688 259.535217,68.903015 
	C259.698761,68.612831 259.862305,68.322655 260.002197,68.002800 
	C260.002197,68.002800 260.032898,68.024261 260.524780,67.875458 
M239.051559,146.774826 
	C239.097107,147.836075 239.142639,148.897324 239.031647,150.889557 
	C239.031647,160.144226 239.031647,169.398895 239.031647,178.666946 
	C247.222031,178.666946 254.933105,178.666946 262.951324,178.666946 
	C262.951324,162.741837 262.960052,147.140350 262.914276,131.539032 
	C262.912720,131.005539 262.364624,130.473633 262.017548,129.166748 
	C262.284180,127.443886 262.550812,125.721024 262.959991,123.349365 
	C262.921875,122.909988 262.883728,122.470612 262.987946,121.096970 
	C262.987946,106.806618 262.987946,92.516266 262.987946,78.225922 
	C262.609100,78.115166 262.230255,78.004417 261.851440,77.893661 
	C261.277161,78.673416 260.702881,79.453171 259.740692,80.769066 
	C253.195923,87.906944 246.651154,95.044823 239.275940,102.449272 
	C239.235275,113.658249 239.194595,124.867226 239.049133,136.916534 
	C239.093170,138.607117 239.137207,140.297714 239.039185,142.783142 
	C239.088470,143.850128 239.137756,144.917099 239.051559,146.774826 
M300.344666,218.512650 
	C291.562439,218.341202 282.780182,218.169754 273.068115,218.003021 
	C268.378754,218.334885 263.689362,218.666748 258.333344,218.996063 
	C257.888885,218.996796 257.444458,218.997528 256.507446,218.584488 
	C255.336868,218.718781 254.166306,218.853088 252.059128,218.989792 
	C244.425064,218.675079 236.771561,217.892303 229.163696,218.208282 
	C223.992752,218.423065 217.817017,216.946579 214.131500,222.438446 
	C210.000076,228.594803 203.950775,229.974213 197.205490,229.983459 
	C182.710495,230.003357 168.215057,229.936493 153.720612,230.029083 
	C146.733246,230.073715 141.382156,227.111603 136.629776,222.179947 
	C135.033218,220.523148 132.258759,219.194534 129.984741,219.133652 
	C118.663498,218.830505 107.329597,218.999939 95.234955,218.672440 
	C89.493065,218.445404 83.751183,218.218384 77.069931,217.985947 
	C66.710732,217.988281 56.351528,217.990631 45.085384,217.989914 
	C42.058731,217.997803 39.032078,218.005692 35.066998,218.005951 
	C27.434864,218.012054 19.802261,217.972824 12.170881,218.051773 
	C9.867707,218.075592 7.467334,218.533691 8.655165,221.780289 
	C12.628623,232.640656 22.384867,239.588608 34.939621,239.995956 
	C53.627720,239.993988 72.315819,239.992020 91.940727,239.995651 
	C150.292999,239.994446 208.645279,239.993225 267.919891,239.999588 
	C280.944397,239.997696 293.968933,239.995804 307.810242,240.000763 
	C310.021179,240.156693 312.232086,240.312622 314.692596,240.486160 
	C313.756134,236.060730 312.759460,232.231308 312.168304,228.340286 
	C311.383118,223.172012 314.120422,220.112457 319.351440,220.016205 
	C322.865021,219.951538 326.380768,220.003891 330.505798,220.003891 
	C329.694427,218.777908 329.524200,218.306259 329.364227,218.309738 
	C319.916595,218.514130 310.469788,218.757721 300.344666,218.512650 
M339.482452,221.018402 
	C339.065796,223.059067 338.649170,225.099747 338.232513,227.140427 
	C340.932648,225.735336 342.654633,224.021027 343.815674,221.986588 
	C344.056885,221.564026 342.393250,219.673721 341.282318,218.981979 
	C340.411285,218.439621 338.035156,217.371689 339.482452,221.018402 
z"/>
<path fill="#0E0E0E" opacity="1.000000" stroke="none" 
	d="
M266.997559,239.992004 
	C208.645279,239.993225 150.292999,239.994446 91.602463,239.658829 
	C93.077873,238.505493 94.891556,237.688980 97.143433,236.675201 
	C92.733452,230.825119 88.235176,225.110519 96.000160,219.003006 
	C107.329597,218.999939 118.663498,218.830505 129.984741,219.133652 
	C132.258759,219.194534 135.033218,220.523148 136.629776,222.179947 
	C141.382156,227.111603 146.733246,230.073715 153.720612,230.029083 
	C168.215057,229.936493 182.710495,230.003357 197.205490,229.983459 
	C203.950775,229.974213 210.000076,228.594803 214.131500,222.438446 
	C217.817017,216.946579 223.992752,218.423065 229.163696,218.208282 
	C236.771561,217.892303 244.425064,218.675079 252.772781,219.198517 
	C254.657623,219.270905 255.828812,219.134583 257.000000,218.998260 
	C257.444458,218.997528 257.888885,218.996796 258.893250,219.309158 
	C265.822815,220.765381 272.218445,221.787170 278.542725,223.142075 
	C280.013245,223.457092 281.240814,224.906036 282.580170,225.833252 
	C281.268402,226.550812 280.010345,227.750137 278.635681,227.903320 
	C272.370728,228.601440 267.742554,233.254349 266.997559,239.992004 
z"/>
<path fill="#0C0C0B" opacity="1.000000" stroke="none" 
	d="
M95.617554,218.837723 
	C88.235176,225.110519 92.733452,230.825119 97.143433,236.675201 
	C94.891556,237.688980 93.077873,238.505493 91.134056,239.656021 
	C72.315819,239.992020 53.627720,239.993988 34.398743,239.647003 
	C32.840618,236.634857 29.102734,234.390823 32.514111,231.036438 
	C36.245026,227.367844 37.760334,223.137207 36.005424,218.013580 
	C39.032078,218.005692 42.058731,217.997803 45.879936,218.228058 
	C54.064281,218.645630 61.453976,218.942307 68.843903,218.948059 
	C71.898781,218.950439 74.954147,218.329056 78.009293,217.991364 
	C83.751183,218.218384 89.493065,218.445404 95.617554,218.837723 
z"/>
<path fill="#C88A14" opacity="1.000000" stroke="none" 
	d="
M36.198391,167.024551 
	C36.157207,141.299393 36.116020,115.574249 36.387329,89.213821 
	C37.131588,87.719933 37.563354,86.861320 38.336761,86.123466 
	C39.428185,87.841782 40.711193,89.397278 40.841030,91.043709 
	C41.669727,101.552818 45.285496,111.044052 50.565056,120.054794 
	C51.384369,121.453140 51.285042,123.440384 51.436569,125.170532 
	C52.072323,132.429398 52.641930,139.694061 53.235760,146.956604 
	C53.760910,146.942490 54.286060,146.928375 54.811207,146.914261 
	C55.165318,135.621567 55.519428,124.328880 55.900787,112.687576 
	C56.207474,111.236786 56.486912,110.134598 56.766350,109.032410 
	C56.821766,125.733833 56.877178,142.435257 56.651817,159.807220 
	C55.316868,160.415146 53.677197,160.762604 53.300846,160.225235 
	C50.201481,155.800003 45.458725,155.853775 41.354767,156.781006 
	C36.642933,157.845551 38.226498,162.580460 38.010029,166.037811 
	C37.948315,167.023483 38.004734,168.016541 37.816216,169.059601 
	C37.149757,168.416840 36.674072,167.720688 36.198391,167.024551 
z"/>
<path fill="#BF7E09" opacity="1.000000" stroke="none" 
	d="
M56.847729,108.568054 
	C56.486912,110.134598 56.207474,111.236786 55.559486,112.586487 
	C54.525970,112.144623 53.356709,111.511002 53.273376,110.757309 
	C52.352287,102.426689 51.583435,94.078926 50.814575,85.732018 
	C50.648365,83.927582 50.939934,82.034637 50.508972,80.310341 
	C49.537537,76.423538 46.627941,72.759407 49.707962,68.544937 
	C49.993561,68.154144 49.557583,66.766968 49.043400,66.339371 
	C46.372921,64.118584 47.450596,61.817333 48.201981,59.131607 
	C48.613068,57.662228 47.936069,55.106239 46.808739,54.152317 
	C44.498192,52.197197 41.553432,50.991585 37.976826,48.973545 
	C37.821129,51.944180 37.629303,54.143776 37.604343,56.345261 
	C37.517933,63.965965 37.444641,71.587463 37.466713,79.208366 
	C37.473274,81.473633 37.809792,83.737946 37.995121,86.002701 
	C37.563354,86.861320 37.131588,87.719933 36.454762,88.743736 
	C36.145103,73.500443 35.607708,58.073147 36.219795,42.691597 
	C36.516006,35.247757 42.065304,27.050779 53.430016,24.385231 
	C51.001797,27.741846 51.858883,33.398495 46.389240,34.261463 
	C46.618050,35.655903 46.452908,37.294357 47.140579,38.404575 
	C51.142525,44.865524 53.174522,45.466007 61.064663,43.019810 
	C55.195435,48.231606 57.025333,55.176483 56.983021,61.636292 
	C56.881573,77.124886 56.936993,92.614502 56.847729,108.568054 
z"/>
<path fill="#BF7C06" opacity="1.000000" stroke="none" 
	d="
M240.106369,102.182693 
	C246.651154,95.044823 253.195923,87.906944 260.291443,80.605217 
	C261.219421,81.976669 261.914948,83.510277 261.923126,85.047546 
	C261.985260,96.691139 261.912659,108.335434 261.510071,119.990128 
	C258.185516,121.892868 255.312057,123.925514 252.260757,125.642082 
	C248.309296,127.865059 244.216064,129.835999 240.145264,131.456329 
	C240.106583,121.392380 240.106476,111.787537 240.106369,102.182693 
z"/>
<path fill="#C57904" opacity="1.000000" stroke="none" 
	d="
M61.295166,42.979393 
	C53.174522,45.466007 51.142525,44.865524 47.140579,38.404575 
	C46.452908,37.294357 46.618050,35.655903 46.389240,34.261463 
	C51.858883,33.398495 51.001797,27.741846 53.802933,24.451962 
	C54.403397,24.128382 54.820877,24.071175 56.033020,24.019794 
	C68.221519,24.037428 79.615349,24.049236 91.004318,24.297005 
	C90.999458,24.532967 91.001060,25.004990 91.026039,25.409330 
	C92.370331,30.866804 93.689644,35.919937 94.539482,40.984852 
	C91.258629,41.001762 88.444893,40.934853 85.636314,41.026279 
	C78.738503,41.250820 71.843056,41.548290 64.946663,41.816422 
	C64.946663,41.816422 64.565086,41.944717 64.065308,41.989151 
	C63.033039,42.284470 62.500561,42.535362 61.968079,42.786251 
	C61.968079,42.786251 61.525665,42.938980 61.295166,42.979393 
z"/>
<path fill="#0B0B0A" opacity="1.000000" stroke="none" 
	d="
M267.458740,239.995789 
	C267.742554,233.254349 272.370728,228.601440 278.635681,227.903320 
	C280.010345,227.750137 281.268402,226.550812 282.580170,225.833252 
	C281.240814,224.906036 280.013245,223.457092 278.542725,223.142075 
	C272.218445,221.787170 265.822815,220.765381 259.226562,219.310425 
	C263.689362,218.666748 268.378754,218.334885 273.873138,218.237396 
	C282.794312,218.662704 290.910492,218.853622 299.091187,219.380737 
	C300.607147,221.446548 302.737183,222.958420 303.375671,224.948776 
	C304.946869,229.846634 305.832245,234.964508 306.993439,239.993896 
	C293.968933,239.995804 280.944397,239.997696 267.458740,239.995789 
z"/>
<path fill="#C77D07" opacity="1.000000" stroke="none" 
	d="
M59.100594,190.978531 
	C63.129826,190.352646 67.159058,189.726776 71.661606,189.295929 
	C71.600525,190.729675 71.066124,191.968384 70.864822,192.434998 
	C76.780991,193.842407 82.502426,195.363098 88.297340,196.513702 
	C91.128471,197.075836 94.096428,196.948776 97.002457,197.133652 
	C88.799629,206.075211 78.808624,211.636169 66.577423,213.394043 
	C66.651604,213.805695 66.671547,214.450745 66.896187,215.014191 
	C67.125061,215.588272 67.555298,216.082108 68.224869,217.117508 
	C63.665573,215.882187 59.523262,214.759857 55.073212,213.061340 
	C54.509438,211.990509 54.253407,211.495880 54.285736,210.806198 
	C55.454342,208.263489 57.736561,205.158752 56.953758,203.709137 
	C54.538754,199.236984 55.955765,195.720322 58.122387,191.767502 
	C58.553017,191.371384 58.826805,191.174957 59.100594,190.978531 
z"/>
<path fill="#BD7609" opacity="1.000000" stroke="none" 
	d="
M314.053192,132.905365 
	C314.357147,134.616547 314.919067,136.326843 314.925018,138.039047 
	C314.981812,154.491028 314.779755,170.945480 314.994141,187.394760 
	C315.131683,197.948410 311.217468,205.875366 301.048340,210.798553 
	C299.604736,209.816055 298.687469,208.883957 298.037262,207.792709 
	C296.484009,205.186081 288.960632,204.177139 295.651489,199.217926 
	C295.876068,199.051514 295.385223,198.005829 295.331390,197.361359 
	C295.182007,195.572708 295.087372,193.779495 294.976746,191.613434 
	C295.000946,190.489197 295.019531,189.739609 295.257965,189.253616 
	C296.450745,190.244537 297.423676,190.971878 298.396576,191.699234 
	C298.930023,190.768951 299.484985,189.850235 299.991608,188.905548 
	C300.664001,187.651840 301.158844,186.277298 301.980865,185.135254 
	C303.355377,183.225708 304.892731,181.428299 306.431030,179.643616 
	C307.390594,178.530380 308.319946,176.898575 309.537354,176.592972 
	C313.121399,175.693314 313.025879,173.196243 313.011658,170.433945 
	C312.961212,160.620850 312.986603,150.807358 313.085968,140.681274 
	C313.476868,137.880814 313.765045,135.393097 314.053192,132.905365 
z"/>
<path fill="#D09019" opacity="1.000000" stroke="none" 
	d="
M58.913658,190.627594 
	C58.826805,191.174957 58.553017,191.371384 57.746956,191.795792 
	C55.504795,193.304306 53.189102,194.231415 52.197544,195.931015 
	C49.106300,201.229630 51.562977,206.182983 53.997375,211.001236 
	C54.253407,211.495880 54.509438,211.990509 54.885506,212.736542 
	C50.680977,210.594040 46.356419,208.200134 42.374199,205.394653 
	C46.518406,203.926514 45.963005,200.939133 45.788754,198.099136 
	C45.689938,196.488525 44.998436,193.908661 45.712051,193.416870 
	C50.374252,190.203827 48.879230,184.767410 50.764904,180.608704 
	C52.048981,177.776810 52.232704,174.986389 47.627991,174.867264 
	C46.558125,174.839584 45.538441,173.546127 44.463776,172.887100 
	C42.323212,171.574387 40.160526,170.297760 38.006981,169.006226 
	C38.004734,168.016541 37.948315,167.023483 38.010029,166.037811 
	C38.226498,162.580460 36.642933,157.845551 41.354767,156.781006 
	C45.458725,155.853775 50.201481,155.800003 53.300846,160.225235 
	C53.677197,160.762604 55.316868,160.415146 56.584877,160.276367 
	C56.855385,168.364212 56.813107,176.656250 57.046944,184.940491 
	C57.097557,186.733597 58.140728,188.498688 58.913658,190.627594 
z"/>
<path fill="#DC9E22" opacity="1.000000" stroke="none" 
	d="
M177.997711,146.813629 
	C176.931808,146.860458 175.865906,146.907303 174.269943,146.572632 
	C170.230164,143.897995 169.476517,138.346924 172.784836,135.138779 
	C181.557816,126.631447 190.816345,118.616425 199.426376,109.953018 
	C203.655640,105.697533 206.468964,100.011299 212.806671,98.114449 
	C213.366974,97.946747 213.613724,96.731354 214.254379,96.002525 
	C214.502670,96.002487 214.999390,95.999390 215.374298,96.001740 
	C216.498978,96.003441 217.248718,96.002792 218.373199,96.023376 
	C224.545456,96.449715 223.363419,101.784645 225.109573,105.051331 
	C224.295609,105.968452 223.481644,106.885582 221.964386,107.886620 
	C207.174286,104.365944 201.339600,111.946877 197.601868,123.995667 
	C195.063446,124.954773 192.772141,125.680840 190.831055,126.944756 
	C189.379791,127.889740 188.600754,129.879257 187.140945,130.796875 
	C181.182892,134.541977 178.785980,140.187515 177.997711,146.813629 
z"/>
<path fill="#C27706" opacity="1.000000" stroke="none" 
	d="
M87.905579,89.030617 
	C85.891266,76.975143 96.876060,66.853027 106.145294,67.973030 
	C108.596397,68.269196 111.095032,68.171875 113.548126,68.785767 
	C113.990402,72.140167 113.537727,75.746559 115.127632,77.613060 
	C117.828690,80.784004 119.132202,83.114410 115.990173,86.528801 
	C112.157997,90.693176 110.673309,90.878006 105.894150,87.412224 
	C105.224144,86.926346 104.582268,86.377930 103.853912,86.000084 
	C99.082870,83.525101 90.852692,85.914787 89.733574,89.873657 
	C88.950188,89.512070 88.427887,89.271339 87.905579,89.030617 
z"/>
<path fill="#090909" opacity="1.000000" stroke="none" 
	d="
M35.536209,218.009766 
	C37.760334,223.137207 36.245026,227.367844 32.514111,231.036438 
	C29.102734,234.390823 32.840618,236.634857 33.930252,239.644775 
	C22.384867,239.588608 12.628623,232.640656 8.655165,221.780289 
	C7.467334,218.533691 9.867707,218.075592 12.170881,218.051773 
	C19.802261,217.972824 27.434864,218.012054 35.536209,218.009766 
z"/>
<path fill="#CA7E05" opacity="1.000000" stroke="none" 
	d="
M263.912964,31.960672 
	C272.781891,24.662054 283.488190,23.459106 294.290344,23.513540 
	C297.758820,23.531017 301.215271,25.937075 304.843018,27.928875 
	C305.020386,29.072495 305.031952,29.537590 304.698792,30.017019 
	C303.238678,30.687923 302.123352,31.344494 300.645508,32.019726 
	C297.833588,33.856804 295.210846,35.487156 292.980316,37.543030 
	C290.408203,39.913712 287.787048,41.926338 284.196594,40.454613 
	C279.371765,38.476921 274.706024,36.114571 269.922699,34.030514 
	C267.986420,33.186886 265.920105,32.641678 263.912964,31.960672 
z"/>
<path fill="#F7B933" opacity="1.000000" stroke="none" 
	d="
M88.157959,153.981247 
	C88.108147,153.568848 88.058327,153.156433 87.990189,152.122314 
	C87.963982,151.293671 87.956085,151.086731 87.948181,150.879776 
	C87.948181,150.879776 88.026527,150.433136 88.285400,149.891464 
	C88.704346,147.566116 88.864410,145.782455 89.431686,144.000229 
	C92.582024,142.812164 95.685616,142.094620 97.991920,140.333176 
	C102.548470,136.853104 106.663765,132.795303 110.971344,129.421570 
	C110.983559,132.238586 110.985939,134.610382 110.651711,137.052948 
	C107.834808,139.669113 104.885315,141.910019 102.987801,144.833679 
	C100.356552,148.887863 101.947388,151.875198 106.568069,153.432953 
	C108.403740,154.051804 110.084656,155.129700 111.836021,155.998627 
	C111.792908,158.585419 111.749794,161.172226 111.124207,163.727905 
	C108.952400,163.521881 107.346664,163.438080 105.776665,163.155670 
	C100.179298,162.148880 94.594078,161.074585 88.999435,159.629272 
	C88.715729,157.482208 88.436844,155.731720 88.157959,153.981247 
z"/>
<path fill="#FAC53F" opacity="1.000000" stroke="none" 
	d="
M147.976837,132.058929 
	C142.996628,126.963356 138.016434,121.867783 133.136688,116.215546 
	C133.491455,115.439537 133.745728,115.220200 134.273163,115.188156 
	C144.462204,114.507797 147.361435,112.266060 148.213684,104.769928 
	C148.966446,103.665573 149.492966,102.773888 150.019485,101.882202 
	C154.283859,106.033714 158.548233,110.185234 162.607468,114.716461 
	C158.788147,119.704384 154.507462,123.968399 151.867752,129.079865 
	C150.712860,131.316147 149.956345,131.909393 147.976837,132.058929 
z"/>
<path fill="#CF8406" opacity="1.000000" stroke="none" 
	d="
M263.562744,32.005398 
	C265.920105,32.641678 267.986420,33.186886 269.922699,34.030514 
	C274.706024,36.114571 279.371765,38.476921 284.196594,40.454613 
	C287.787048,41.926338 290.408203,39.913712 292.980316,37.543030 
	C295.210846,35.487156 297.833588,33.856804 300.649902,32.271301 
	C301.019745,32.671944 301.022736,32.839668 300.781311,33.235321 
	C300.167542,34.010838 299.823669,34.577759 299.425018,35.103127 
	C293.461945,42.961742 288.080139,45.004997 280.356354,41.991283 
	C277.049805,40.701107 273.889557,38.444031 272.391907,44.010960 
	C272.260193,44.500584 270.909515,44.566174 270.282196,45.037777 
	C268.792053,46.158001 266.999847,47.148354 266.035278,48.645702 
	C262.893036,53.523708 258.205658,53.915401 254.436890,49.467209 
	C254.023727,48.979568 252.830200,49.153091 251.739899,48.891720 
	C250.973679,47.526859 250.466171,46.290237 249.958649,45.053612 
	C249.958664,45.053612 249.950668,44.950836 250.181229,44.836720 
	C250.638046,44.548145 250.803467,44.327991 250.908081,44.062134 
	C254.484634,39.520428 257.764404,34.674717 263.562744,32.005398 
z"/>
<path fill="#D2951E" opacity="1.000000" stroke="none" 
	d="
M37.816212,169.059601 
	C40.160526,170.297760 42.323212,171.574387 44.463776,172.887100 
	C45.538441,173.546127 46.558125,174.839584 47.627991,174.867264 
	C52.232704,174.986389 52.048981,177.776810 50.764904,180.608704 
	C48.879230,184.767410 50.374252,190.203827 45.712051,193.416870 
	C44.998436,193.908661 45.689938,196.488525 45.788754,198.099136 
	C45.963005,200.939133 46.518406,203.926514 42.340691,205.038452 
	C41.964844,205.093857 41.960388,205.058914 41.815220,204.863342 
	C41.470081,204.428177 41.229088,204.241562 40.947067,204.107941 
	C39.302364,200.176437 36.604568,196.340973 36.235497,192.293152 
	C35.501331,184.241135 36.048500,176.072311 36.132332,167.488144 
	C36.674072,167.720688 37.149757,168.416840 37.816212,169.059601 
z"/>
<path fill="#DFA62C" opacity="1.000000" stroke="none" 
	d="
M214.006104,96.002563 
	C213.613724,96.731354 213.366974,97.946747 212.806671,98.114449 
	C206.468964,100.011299 203.655640,105.697533 199.426376,109.953018 
	C190.816345,118.616425 181.557816,126.631447 172.784836,135.138779 
	C169.476517,138.346924 170.230164,143.897995 173.875610,146.498611 
	C168.753418,145.125763 163.495499,143.445435 158.335693,141.241241 
	C160.300186,141.024979 162.166565,141.332581 162.602859,141.404480 
	C166.888489,135.833344 170.637482,131.001190 174.327957,126.124756 
	C175.004974,125.230186 175.444138,124.155617 175.993088,123.164131 
	C182.194199,121.711555 185.559937,116.829712 189.251602,112.296463 
	C191.514893,109.517227 193.960709,106.886627 196.835297,103.931854 
	C197.598740,103.472214 197.792831,103.224136 197.928329,102.930199 
	C197.982422,102.582390 198.155670,102.310501 199.003479,101.939957 
	C199.767395,101.016876 199.975891,100.268379 200.184387,99.519875 
	C200.184387,99.519875 200.300842,99.217697 200.687775,99.398865 
	C205.769241,99.761276 210.636703,100.237328 211.106369,92.293106 
	C212.538727,94.125443 213.272415,95.064011 214.006104,96.002563 
z"/>
<path fill="#E1A829" opacity="1.000000" stroke="none" 
	d="
M225.410477,104.917740 
	C223.363419,101.784645 224.545456,96.449715 218.439697,95.689377 
	C219.421585,93.556648 220.711700,91.779152 222.233551,89.946655 
	C222.744904,89.591354 223.024536,89.291054 223.304169,88.990761 
	C223.196640,88.894028 223.089111,88.797302 222.981583,88.700577 
	C222.653824,89.133110 222.326065,89.565636 221.638641,90.016510 
	C219.514008,90.694763 217.749039,91.354675 215.717361,91.935280 
	C215.656754,91.004646 215.577530,89.827690 216.116119,89.355759 
	C219.208313,86.646194 222.447037,84.103813 225.625916,81.512978 
	C225.102264,79.917374 224.658264,78.564430 224.654770,78.553787 
	C227.000061,76.582047 229.212143,75.517357 230.122528,73.773224 
	C231.537933,71.061539 232.068024,67.887741 232.973373,64.909813 
	C233.143234,64.628510 233.313080,64.347206 233.846344,64.249825 
	C234.474594,64.955490 234.739426,65.477234 234.773102,66.327240 
	C233.759399,70.850121 232.976852,75.044754 232.000595,80.277725 
	C233.711487,79.865021 235.619827,79.758163 237.171494,78.958855 
	C240.702515,77.139954 242.146194,77.773972 242.636902,82.015305 
	C240.555847,83.651596 239.077789,85.968689 237.054367,86.638634 
	C235.192307,87.255142 232.743683,86.100029 230.553452,85.725349 
	C230.456604,86.013008 230.359772,86.300659 230.262939,86.588318 
	C231.257782,87.415718 232.252625,88.243118 233.376465,89.177811 
	C226.949600,92.120491 226.881973,92.734886 232.044739,98.114891 
	C229.933609,100.337982 227.822495,102.561073 225.410477,104.917740 
z"/>
<path fill="#D58B0D" opacity="1.000000" stroke="none" 
	d="
M251.998627,49.019958 
	C252.830200,49.153091 254.023727,48.979568 254.436890,49.467209 
	C258.205658,53.915401 262.893036,53.523708 266.035278,48.645702 
	C266.999847,47.148354 268.792053,46.158001 270.282196,45.037777 
	C270.909515,44.566174 272.260193,44.500584 272.391907,44.010960 
	C273.889557,38.444031 277.049805,40.701107 280.356354,41.991283 
	C288.080139,45.004997 293.461945,42.961742 299.425018,35.103127 
	C299.823669,34.577759 300.167542,34.010838 300.995239,33.520004 
	C303.237366,37.845531 299.837585,39.433414 297.323303,41.394756 
	C295.301208,42.972153 293.133209,44.362568 291.029968,45.835953 
	C289.944000,45.881817 288.858063,45.927681 287.198486,45.755669 
	C286.092194,45.631931 285.559509,45.726063 285.026855,45.820198 
	C279.866425,46.464317 276.695435,49.976059 273.098175,53.850372 
	C272.352997,53.997719 272.180359,53.993271 271.966461,53.916969 
	C271.925171,53.845116 271.729523,53.836983 271.729523,53.836983 
	C271.729523,53.836983 271.988464,54.008228 271.995667,54.278019 
	C272.010071,54.727589 272.017273,54.907372 272.024475,55.087158 
	C272.010284,55.444016 271.850189,55.714569 270.916748,55.929276 
	C264.150787,54.460083 258.916809,56.601357 253.988373,59.619003 
	C252.327774,57.630241 250.675751,56.029598 248.992172,54.398407 
	C249.844086,52.874367 250.921356,50.947163 251.998627,49.019958 
z"/>
<path fill="#CA7E05" opacity="1.000000" stroke="none" 
	d="
M89.994659,89.994507 
	C90.852692,85.914787 99.082870,83.525101 103.853912,86.000084 
	C104.582268,86.377930 105.224144,86.926346 105.894150,87.412224 
	C110.673309,90.878006 112.157997,90.693176 115.990173,86.528801 
	C119.132202,83.114410 117.828690,80.784004 115.127632,77.613060 
	C113.537727,75.746559 113.990402,72.140167 113.808235,69.130539 
	C117.712769,71.042572 121.333473,73.140373 124.836136,75.933426 
	C123.757935,79.912949 123.182762,83.383461 121.713112,86.421234 
	C120.582771,88.757645 118.701675,91.324562 116.481773,92.398232 
	C113.308899,93.932808 109.521873,94.197540 105.912689,94.733261 
	C103.663857,94.204948 100.416031,94.740700 99.538826,93.541855 
	C96.939255,89.989082 93.677666,89.787506 89.994659,89.994507 
z"/>
<path fill="#CF8A0D" opacity="1.000000" stroke="none" 
	d="
M105.997124,95.004578 
	C109.521873,94.197540 113.308899,93.932808 116.481773,92.398232 
	C118.701675,91.324562 120.582771,88.757645 121.713112,86.421234 
	C123.182762,83.383461 123.757935,79.912949 124.865707,76.290039 
	C125.615898,76.437515 126.218452,76.923630 127.033966,77.877335 
	C127.401802,78.598434 127.596344,78.816582 127.830544,78.999367 
	C127.830544,78.999367 127.996605,79.457161 127.756790,79.881973 
	C124.619057,82.877686 123.581718,85.565033 125.675209,89.413795 
	C126.502167,90.934120 125.727341,93.435143 125.409973,95.446709 
	C124.644623,100.297562 120.098785,99.623055 116.976326,101.023041 
	C116.102684,100.621452 115.229034,100.219872 113.877464,99.598595 
	C113.465576,100.198425 112.716850,101.288795 111.723679,102.939331 
	C111.303482,104.003334 111.127708,104.507179 110.575356,105.028824 
	C106.799591,106.364662 103.400406,107.682693 99.980789,108.636871 
	C96.206627,103.400543 97.696327,100.293900 103.110756,98.155693 
	C104.301910,97.685295 105.046753,96.084709 105.997124,95.004578 
z"/>
<path fill="#CA880F" opacity="1.000000" stroke="none" 
	d="
M105.912689,94.733261 
	C105.046753,96.084709 104.301910,97.685295 103.110756,98.155693 
	C97.696327,100.293900 96.206627,103.400543 99.756622,108.891251 
	C95.757263,112.342339 91.961647,115.175186 88.166016,118.008034 
	C88.106216,108.596260 88.046417,99.184479 87.946098,89.401657 
	C88.427887,89.271339 88.950188,89.512070 89.733574,89.873657 
	C93.677666,89.787506 96.939255,89.989082 99.538826,93.541855 
	C100.416031,94.740700 103.663857,94.204948 105.912689,94.733261 
z"/>
<path fill="#D2951E" opacity="1.000000" stroke="none" 
	d="
M178.366409,146.880646 
	C178.785980,140.187515 181.182892,134.541977 187.140945,130.796875 
	C188.600754,129.879257 189.379791,127.889740 190.831055,126.944756 
	C192.772141,125.680840 195.063446,124.954773 197.947784,123.985039 
	C200.957703,122.994217 203.224197,122.016098 205.490707,121.037979 
	C205.557632,120.432030 205.624557,119.826080 205.691483,119.220131 
	C206.809814,120.825783 207.928131,122.431435 209.046463,124.037094 
	C206.247467,127.301086 203.448471,130.565063 200.322021,133.610107 
	C199.787506,132.522842 199.580444,131.654526 199.543625,131.500076 
	C195.983490,133.461273 192.622910,135.338608 189.237152,137.169403 
	C186.549118,138.622925 182.818848,139.526001 185.999298,143.819336 
	C183.577896,144.862122 181.156494,145.904892 178.366409,146.880646 
z"/>
<path fill="#C68109" opacity="1.000000" stroke="none" 
	d="
M249.022598,31.163448 
	C246.903351,34.358124 244.784088,37.552799 241.879669,40.913361 
	C238.046860,41.071880 234.999237,41.064510 231.966599,40.592598 
	C231.650146,34.810463 231.318710,29.492874 230.987274,24.175285 
	C235.364487,23.793364 239.741684,23.411444 244.726044,23.266075 
	C245.589310,23.665276 245.839508,23.836544 246.083832,24.016432 
	C246.083832,24.016432 246.002502,23.993044 246.004700,24.350706 
	C247.012131,26.860062 248.017365,29.011753 249.022598,31.163448 
z"/>
<path fill="#050504" opacity="1.000000" stroke="none" 
	d="
M307.401855,239.997330 
	C305.832245,234.964508 304.946869,229.846634 303.375671,224.948776 
	C302.737183,222.958420 300.607147,221.446548 299.423340,219.370010 
	C300.134949,219.014587 300.578918,219.006088 301.022919,218.997589 
	C310.469788,218.757721 319.916595,218.514130 329.364227,218.309738 
	C329.524200,218.306259 329.694427,218.777908 330.505798,220.003891 
	C326.380768,220.003891 322.865021,219.951538 319.351440,220.016205 
	C314.120422,220.112457 311.383118,223.172012 312.168304,228.340286 
	C312.759460,232.231308 313.756134,236.060730 314.692596,240.486160 
	C312.232086,240.312622 310.021179,240.156693 307.401855,239.997330 
z"/>
<path fill="#D59922" opacity="1.000000" stroke="none" 
	d="
M209.360703,123.904800 
	C207.928131,122.431435 206.809814,120.825783 205.691483,119.220131 
	C205.624557,119.826080 205.557632,120.432030 205.490707,121.037979 
	C203.224197,122.016098 200.957703,122.994217 198.345291,123.982964 
	C201.339600,111.946877 207.174286,104.365944 221.677872,108.003662 
	C221.577682,109.335876 221.355347,110.889252 220.492081,111.889435 
	C216.993500,115.942932 213.297867,119.826355 209.360703,123.904800 
z"/>
<path fill="#CF8406" opacity="1.000000" stroke="none" 
	d="
M97.316757,196.975479 
	C94.096428,196.948776 91.128471,197.075836 88.297340,196.513702 
	C82.502426,195.363098 76.780991,193.842407 70.864822,192.434998 
	C71.066124,191.968384 71.600525,190.729675 72.044876,189.231506 
	C73.727798,187.726578 75.500748,186.481125 77.786659,185.311539 
	C78.850182,188.834869 81.496864,187.745789 83.659943,187.983017 
	C88.787636,188.545349 93.894226,189.300125 99.380806,189.982162 
	C100.492134,190.024551 101.232002,190.061890 101.971870,190.099213 
	C100.524925,192.338577 99.077988,194.577942 97.316757,196.975479 
z"/>
<path fill="#DFAB38" opacity="1.000000" stroke="none" 
	d="
M232.621307,64.967751 
	C232.068024,67.887741 231.537933,71.061539 230.122528,73.773224 
	C229.212143,75.517357 227.000061,76.582047 224.654770,78.553787 
	C224.658264,78.564430 225.102264,79.917374 225.625916,81.512978 
	C222.447037,84.103813 219.208313,86.646194 216.116119,89.355759 
	C215.577530,89.827690 215.656754,91.004646 215.707947,92.280945 
	C215.643295,93.803749 215.321335,94.901566 214.999390,95.999390 
	C214.999390,95.999390 214.502670,96.002487 214.254395,96.002533 
	C213.272415,95.064011 212.538727,94.125443 211.106369,92.293106 
	C210.636703,100.237328 205.769241,99.761276 200.845947,99.364265 
	C211.167862,87.774223 221.718552,76.399956 232.621307,64.967751 
z"/>
<path fill="#CF8406" opacity="1.000000" stroke="none" 
	d="
M95.008957,40.973068 
	C93.689644,35.919937 92.370331,30.866804 91.442688,25.408127 
	C93.224739,25.001482 94.615120,25.000383 96.447060,24.999302 
	C99.199036,25.665918 102.921867,25.696882 103.560455,27.115854 
	C105.647362,31.753136 106.610481,36.896152 108.005798,41.844673 
	C106.281044,41.887104 104.556290,41.929531 102.078072,41.707100 
	C99.219391,41.285851 97.114174,41.129459 95.008957,40.973068 
z"/>
<path fill="#F0BA38" opacity="1.000000" stroke="none" 
	d="
M148.093109,132.356964 
	C149.956345,131.909393 150.712860,131.316147 151.867752,129.079865 
	C154.507462,123.968399 158.788147,119.704384 162.758911,115.028183 
	C165.529343,117.265701 167.943207,119.571205 170.589981,122.354073 
	C170.301743,123.443199 169.885193,124.210426 169.243103,124.642418 
	C163.512863,128.497574 157.742859,132.293594 151.984558,136.107025 
	C150.726166,134.956345 149.467773,133.805664 148.093109,132.356964 
z"/>
<path fill="#BF7E09" opacity="1.000000" stroke="none" 
	d="
M294.971130,191.988083 
	C295.087372,193.779495 295.182007,195.572708 295.331390,197.361359 
	C295.385223,198.005829 295.876068,199.051514 295.651489,199.217926 
	C288.960632,204.177139 296.484009,205.186081 298.037262,207.792709 
	C298.687469,208.883957 299.604736,209.816055 300.727600,210.929443 
	C293.352905,217.709045 284.866364,213.107590 276.387177,212.824814 
	C286.032959,209.176102 291.396881,202.186356 294.229614,192.363434 
	C294.591705,192.014572 294.971100,191.988083 294.971130,191.988083 
z"/>
<path fill="#DA991D" opacity="1.000000" stroke="none" 
	d="
M88.160782,133.014893 
	C88.118568,130.309021 88.076347,127.603165 88.415642,124.316299 
	C90.643394,122.378494 92.542717,121.087555 94.324921,119.651299 
	C98.135628,116.580269 101.835289,113.369766 105.684509,110.349007 
	C107.313545,109.070580 109.204811,108.126312 110.986992,107.476532 
	C110.977776,110.607239 110.958458,113.291580 110.595825,116.044739 
	C102.888596,121.747330 95.524689,127.381111 88.160782,133.014893 
z"/>
<path fill="#EFB02C" opacity="1.000000" stroke="none" 
	d="
M313.023438,39.880127 
	C316.207947,43.414497 314.444611,47.364582 313.703918,51.883846 
	C310.340424,54.849258 307.357910,57.307957 304.127350,59.380047 
	C300.274841,61.851086 295.436798,63.250465 295.021820,68.512497 
	C295.025269,66.011520 295.038635,63.948902 295.273193,61.570641 
	C295.821350,58.409897 296.148346,55.564800 296.469177,52.773041 
	C303.726257,52.935596 310.147583,48.187618 312.939575,40.717087 
	C312.987885,40.252285 313.005646,40.066204 313.023438,39.880127 
z"/>
<path fill="#E7AD2F" opacity="1.000000" stroke="none" 
	d="
M152.108673,136.415741 
	C157.742859,132.293594 163.512863,128.497574 169.243103,124.642418 
	C169.885193,124.210426 170.301743,123.443199 170.905685,122.501518 
	C172.410019,122.456841 173.831558,122.742073 175.623093,123.095718 
	C175.444138,124.155617 175.004974,125.230186 174.327957,126.124756 
	C170.637482,131.001190 166.888489,135.833344 162.602859,141.404480 
	C162.166565,141.332581 160.300186,141.024979 158.189178,140.919601 
	C156.040604,139.656036 154.136688,138.190247 152.108673,136.415741 
z"/>
<path fill="#E49E1F" opacity="1.000000" stroke="none" 
	d="
M82.217422,178.042252 
	C83.489616,174.955276 84.761810,171.868317 86.338318,168.675354 
	C88.577751,169.711884 90.484962,171.763016 92.453362,171.823486 
	C97.957909,171.992661 103.487762,171.338531 109.267761,171.023010 
	C109.700867,171.052124 109.873840,171.067566 110.046822,171.083008 
	C109.244492,173.970795 108.442154,176.858566 107.313690,179.625107 
	C106.900284,179.188019 106.820190,178.597855 106.724724,178.595367 
	C98.556389,178.381775 90.386864,178.213623 82.217422,178.042252 
z"/>
<path fill="#CF8406" opacity="1.000000" stroke="none" 
	d="
M314.029877,132.511612 
	C313.765045,135.393097 313.476868,137.880814 312.673218,140.681519 
	C307.391235,139.877762 302.959717,140.379593 298.827301,143.290344 
	C297.884094,143.954697 296.342407,143.769424 295.062317,143.527252 
	C295.045380,140.390793 295.042358,137.702316 295.275574,135.217072 
	C299.499207,138.060120 301.412231,134.343765 303.855255,132.580093 
	C306.867065,130.405792 309.348206,127.042412 313.811829,128.978073 
	C313.876740,130.024673 313.941650,131.071259 314.029877,132.511612 
z"/>
<path fill="#F7B933" opacity="1.000000" stroke="none" 
	d="
M295.031738,68.950859 
	C295.436798,63.250465 300.274841,61.851086 304.127350,59.380047 
	C307.357910,57.307957 310.340424,54.849258 313.627625,52.297295 
	C313.871277,53.421928 313.920105,54.810997 313.717041,56.866806 
	C313.585297,58.690071 313.705444,59.846588 313.825562,61.003105 
	C313.825562,61.003105 313.983704,61.413532 313.979919,62.021164 
	C313.926971,63.405403 313.877777,64.182007 313.467102,64.991394 
	C309.689453,66.284286 306.131378,67.261719 302.897278,68.884712 
	C299.717377,70.480484 295.453247,71.174576 294.992188,75.502266 
	C295.001251,73.028557 295.016510,70.989708 295.031738,68.950859 
z"/>
<path fill="#DC9212" opacity="1.000000" stroke="none" 
	d="
M82.076080,178.315186 
	C90.386864,178.213623 98.556389,178.381775 106.724724,178.595367 
	C106.820190,178.597855 106.900284,179.188019 107.002678,179.795883 
	C105.544411,183.303040 104.071022,186.518158 102.284744,189.916245 
	C101.232002,190.061890 100.492134,190.024551 99.311905,189.628998 
	C97.791931,188.159378 96.699379,187.060211 95.634979,185.934418 
	C91.392494,181.447281 85.038582,183.579391 80.190742,180.996597 
	C80.772079,180.193771 81.353409,179.390930 82.076080,178.315186 
z"/>
<path fill="#E0A428" opacity="1.000000" stroke="none" 
	d="
M243.002106,81.977898 
	C242.146194,77.773972 240.702515,77.139954 237.171494,78.958855 
	C235.619827,79.758163 233.711487,79.865021 232.000595,80.277725 
	C232.976852,75.044754 233.759399,70.850121 235.061218,66.524643 
	C235.894836,67.569885 236.651367,68.830421 236.445709,69.907181 
	C235.629471,74.180481 237.628082,74.494736 240.855423,73.348328 
	C241.926971,72.967705 242.952744,72.458290 244.239059,72.249504 
	C246.669952,74.274895 248.773560,74.272408 250.415482,71.862305 
	C252.609985,68.641106 255.510834,68.001556 259.029694,69.066910 
	C255.953751,72.370598 252.877808,75.674278 249.118835,79.083267 
	C246.624573,80.118340 244.813339,81.048119 243.002106,81.977898 
z"/>
<path fill="#E7AD2F" opacity="1.000000" stroke="none" 
	d="
M134.000000,115.000854 
	C133.745728,115.220200 133.491455,115.439537 133.081757,115.858414 
	C131.627441,114.964142 130.328552,113.870316 129.023331,112.060349 
	C130.672211,109.730881 132.346176,108.136269 133.977310,106.498970 
	C135.616867,104.853241 137.546417,103.371429 138.743484,101.442154 
	C140.176941,99.131927 140.968948,96.423691 142.038757,93.887825 
	C144.621094,96.347397 147.203430,98.806969 149.902618,101.574371 
	C149.492966,102.773888 148.966446,103.665573 147.928528,104.604446 
	C145.829071,104.633965 143.556732,103.933235 142.772934,104.718414 
	C139.599609,107.897324 136.884308,111.533447 134.000000,115.000854 
z"/>
<path fill="#EFB02C" opacity="1.000000" stroke="none" 
	d="
M133.002945,24.167036 
	C135.026596,24.104139 137.050247,24.041241 139.579926,23.990681 
	C140.085968,24.003017 140.212585,24.142504 140.152664,24.556265 
	C140.721283,27.967831 141.288177,30.980330 141.997986,33.958767 
	C142.560242,36.318096 143.297791,38.635654 143.685120,41.019268 
	C142.935867,41.330608 142.459000,41.594437 141.982147,41.858269 
	C139.285950,41.897884 136.589737,41.937504 133.418900,41.501545 
	C132.963821,35.406326 132.983383,29.786680 133.002945,24.167036 
z"/>
<path fill="#DA991D" opacity="1.000000" stroke="none" 
	d="
M253.996948,60.007118 
	C258.916809,56.601357 264.150787,54.460083 270.678406,55.982365 
	C269.260132,57.944607 267.452698,59.884209 265.041473,61.762325 
	C261.939880,59.490276 259.022369,59.699787 257.758911,62.392162 
	C256.085266,65.958626 253.115479,66.060753 250.209305,66.959023 
	C248.735916,67.414429 247.398132,68.308609 245.675690,68.912674 
	C244.066818,67.317467 242.424881,65.986481 241.591492,64.264244 
	C240.676254,62.372829 240.505814,60.121010 240.393799,58.024910 
	C242.265900,58.604980 244.121338,58.810993 245.174789,59.838909 
	C248.204941,62.795631 251.013870,62.322495 253.996948,60.007118 
z"/>
<path fill="#EFB02C" opacity="1.000000" stroke="none" 
	d="
M191.119644,23.964855 
	C191.119644,23.964857 191.587708,24.025688 192.024063,24.270184 
	C192.969437,24.667189 193.478455,24.819696 193.990753,25.417603 
	C194.003036,30.895185 194.012009,35.927364 193.566513,40.971550 
	C190.096390,40.982796 187.080765,40.982033 184.051605,40.588245 
	C184.701599,34.869816 185.365097,29.544413 186.451691,24.183617 
	C188.289734,24.087103 189.704697,24.025980 191.119644,23.964855 
z"/>
<path fill="#EEA826" opacity="1.000000" stroke="none" 
	d="
M194.020996,40.959545 
	C194.012009,35.927364 194.003036,30.895185 194.175659,25.311390 
	C194.593765,24.598366 194.807831,24.411282 194.999451,24.198521 
	C197.366608,24.147188 199.733780,24.095856 202.384308,24.434887 
	C202.779755,30.202629 202.891800,35.580009 202.553894,40.967712 
	C199.409622,40.971870 196.715317,40.965710 194.020996,40.959545 
z"/>
<path fill="#D58B0D" opacity="1.000000" stroke="none" 
	d="
M108.438065,41.910179 
	C106.610481,36.896152 105.647362,31.753136 103.560455,27.115854 
	C102.921867,25.696882 99.199036,25.665918 96.446129,24.695511 
	C96.008606,23.986851 96.013580,23.582001 96.018562,23.177151 
	C99.367821,23.132338 102.717079,23.087526 106.656509,23.428242 
	C108.496170,24.207050 109.745651,24.600330 110.997337,24.997036 
	C110.999535,25.000458 111.006477,25.004555 111.005402,25.411903 
	C112.340729,30.883347 113.677124,35.947437 115.004890,41.213764 
	C114.996269,41.415997 114.973694,41.820202 114.973694,41.820202 
	C112.939240,41.872028 110.904785,41.923855 108.438065,41.910179 
z"/>
<path fill="#E0A428" opacity="1.000000" stroke="none" 
	d="
M88.096542,133.348984 
	C95.524689,127.381111 102.888596,121.747330 110.612083,116.477028 
	C110.952377,118.566277 110.933098,120.292053 110.585175,122.083496 
	C106.117325,125.319321 102.002625,128.522186 97.830475,131.648361 
	C94.936775,133.816589 91.963966,135.879257 89.013657,137.672455 
	C88.725052,136.580368 88.449287,135.804901 88.173523,135.029449 
	C88.126450,134.580658 88.079376,134.131866 88.096542,133.348984 
z"/>
<path fill="#E0A428" opacity="1.000000" stroke="none" 
	d="
M141.915100,93.585876 
	C140.968948,96.423691 140.176941,99.131927 138.743484,101.442154 
	C137.546417,103.371429 135.616867,104.853241 133.977310,106.498970 
	C132.346176,108.136269 130.672211,109.730881 128.989655,111.715248 
	C127.697075,111.272247 126.431847,110.458214 125.327591,109.170456 
	C128.135956,104.769638 131.080750,101.003487 133.324234,96.857819 
	C134.775253,94.176521 135.200134,90.939903 136.084839,87.952126 
	C137.987045,89.729393 139.889252,91.506660 141.915100,93.585876 
z"/>
<path fill="#E0A428" opacity="1.000000" stroke="none" 
	d="
M314.748047,108.046692 
	C314.727997,109.909508 314.707916,111.772316 314.209229,113.520592 
	C312.732758,109.573486 310.572815,109.717079 307.926147,111.749062 
	C305.182465,113.855560 302.587067,116.181526 299.696686,118.056870 
	C298.637482,118.744125 296.918701,118.414856 294.985504,118.598145 
	C294.985504,119.808708 294.985504,121.948318 294.777863,124.051811 
	C294.570221,124.015686 294.153931,123.949554 294.153931,123.949554 
	C294.116211,120.931252 294.078522,117.912949 294.297577,114.157616 
	C294.708160,112.289352 294.861938,111.158119 295.234344,110.268753 
	C296.665009,113.410698 298.322479,112.805489 300.452332,111.396255 
	C304.880310,108.466454 309.449615,105.750305 313.992004,103.319641 
	C314.264771,105.144180 314.506409,106.595436 314.748047,108.046692 
z"/>
<path fill="#EEA826" opacity="1.000000" stroke="none" 
	d="
M109.007629,171.009338 
	C103.487762,171.338531 97.957909,171.992661 92.453362,171.823486 
	C90.484962,171.763016 88.577751,169.711884 86.413849,168.304520 
	C86.138725,167.863144 86.092354,167.686600 86.266747,167.080170 
	C86.699501,166.417542 86.857742,166.152664 86.962219,165.855667 
	C86.962219,165.855667 87.018997,165.435837 87.316208,165.103485 
	C88.067017,164.513229 88.520599,164.255295 89.405823,163.998489 
	C95.684387,165.093719 101.560715,166.063187 107.343925,167.427460 
	C108.136063,167.614334 108.464508,169.766861 109.007629,171.009338 
z"/>
<path fill="#FCBC37" opacity="1.000000" stroke="none" 
	d="
M111.907227,155.535492 
	C110.084656,155.129700 108.403740,154.051804 106.568069,153.432953 
	C101.947388,151.875198 100.356552,148.887863 102.987801,144.833679 
	C104.885315,141.910019 107.834808,139.669113 110.778336,137.240906 
	C111.422485,137.601517 111.629837,137.819809 111.863617,138.013016 
	C111.901886,143.699463 111.940163,149.385895 111.907227,155.535492 
z"/>
<path fill="#E49E1F" opacity="1.000000" stroke="none" 
	d="
M203.003860,40.957386 
	C202.891800,35.580009 202.779755,30.202629 202.823227,24.504002 
	C205.410049,24.133551 207.841339,24.084349 210.642380,24.521618 
	C211.006317,30.326693 211.000504,35.645298 210.551437,40.977318 
	C207.740082,40.979614 205.371964,40.968502 203.003860,40.957386 
z"/>
<path fill="#DC9212" opacity="1.000000" stroke="none" 
	d="
M210.994690,40.963905 
	C211.000504,35.645298 211.006317,30.326693 211.016418,24.586845 
	C213.056793,24.119255 215.092880,24.072905 217.564667,24.534225 
	C218.993332,30.355915 219.986298,35.669933 220.527466,41.000546 
	C217.048676,40.999390 214.021683,40.981647 210.994690,40.963905 
z"/>
<path fill="#EEA826" opacity="1.000000" stroke="none" 
	d="
M132.563751,24.094162 
	C132.983383,29.786680 132.963821,35.406326 132.975739,41.431122 
	C129.983978,41.871613 126.960754,41.906952 123.754288,41.680328 
	C124.153267,40.426582 125.218445,39.443027 125.235504,38.441620 
	C125.316483,33.686531 125.111839,28.926582 125.008896,24.168365 
	C127.380783,24.119339 129.752670,24.070314 132.563751,24.094162 
z"/>
<path fill="#D58B0D" opacity="1.000000" stroke="none" 
	d="
M220.979248,40.983955 
	C219.986298,35.669933 218.993332,30.355915 217.997955,24.599857 
	C220.368835,24.115000 222.742126,24.072178 225.557556,24.545036 
	C226.657852,30.378824 227.316025,35.696934 227.537994,41.032532 
	C225.060944,41.028004 223.020096,41.005978 220.979248,40.983955 
z"/>
<path fill="#DA991D" opacity="1.000000" stroke="none" 
	d="
M294.985504,124.087936 
	C294.985504,121.948318 294.985504,119.808708 294.985504,118.598145 
	C296.918701,118.414856 298.637482,118.744125 299.696686,118.056870 
	C302.587067,116.181526 305.182465,113.855560 307.926147,111.749062 
	C310.572815,109.717079 312.732758,109.573486 313.868591,113.729301 
	C314.002655,114.482819 313.998779,114.913078 313.693298,115.729965 
	C307.590393,119.418297 301.789062,122.720009 295.741455,126.032410 
	C295.495178,126.043083 295.004730,126.096779 294.988953,125.761589 
	C294.977264,124.980247 294.981384,124.534088 294.985504,124.087936 
z"/>
<path fill="#DC9E22" opacity="1.000000" stroke="none" 
	d="
M135.944366,87.649895 
	C135.200134,90.939903 134.775253,94.176521 133.324234,96.857819 
	C131.080750,101.003487 128.135956,104.769638 125.190201,108.865021 
	C123.464714,107.400200 122.037605,105.767090 120.404640,103.698631 
	C120.746262,102.997108 121.267235,102.620499 121.845299,102.481804 
	C127.819290,101.048492 130.221725,97.755692 130.090454,91.975044 
	C130.016464,88.716423 130.649506,85.441750 130.964050,82.174309 
	C132.577332,83.898758 134.190628,85.623215 135.944366,87.649895 
z"/>
<path fill="#E7AD2F" opacity="1.000000" stroke="none" 
	d="
M242.636902,82.015305 
	C244.813339,81.048119 246.624573,80.118340 248.766266,79.110420 
	C244.780884,84.013496 240.472366,89.001106 236.144196,93.971603 
	C235.014664,95.268791 233.823944,96.512688 232.353027,97.947983 
	C226.881973,92.734886 226.949600,92.120491 233.376465,89.177811 
	C232.252625,88.243118 231.257782,87.415718 230.262939,86.588318 
	C230.359772,86.300659 230.456604,86.013008 230.553452,85.725349 
	C232.743683,86.100029 235.192307,87.255142 237.054367,86.638634 
	C239.077789,85.968689 240.555847,83.651596 242.636902,82.015305 
z"/>
<path fill="#D29015" opacity="1.000000" stroke="none" 
	d="
M110.976891,107.030182 
	C109.204811,108.126312 107.313545,109.070580 105.684509,110.349007 
	C101.835289,113.369766 98.135628,116.580269 94.324921,119.651299 
	C92.542717,121.087555 90.643394,122.378494 88.482727,123.871719 
	C88.124214,122.291504 88.080116,120.574867 88.101021,118.433136 
	C91.961647,115.175186 95.757263,112.342339 99.777054,109.255104 
	C103.400406,107.682693 106.799591,106.364662 110.599861,105.364502 
	C110.992928,106.131645 110.984909,106.580910 110.976891,107.030182 
z"/>
<path fill="#D29015" opacity="1.000000" stroke="none" 
	d="
M240.183868,131.915436 
	C244.216064,129.835999 248.309296,127.865059 252.260757,125.642082 
	C255.312057,123.925514 258.185516,121.892868 261.578796,120.270912 
	C262.294891,121.037804 262.570221,121.534515 262.845581,122.031235 
	C262.883728,122.470612 262.921875,122.909988 262.552551,123.746834 
	C257.620392,127.049515 253.203568,130.145950 248.528351,132.784485 
	C245.939438,134.245575 242.918182,134.940598 240.073685,135.575592 
	C240.098312,134.085327 240.141083,133.000381 240.183868,131.915436 
z"/>
<path fill="#D29015" opacity="1.000000" stroke="none" 
	d="
M253.988373,59.619003 
	C251.013870,62.322495 248.204941,62.795631 245.174789,59.838909 
	C244.121338,58.810993 242.265900,58.604980 240.131210,58.000214 
	C239.310898,57.959057 239.136093,57.941273 238.961288,57.923489 
	C242.417068,53.714134 245.872833,49.504784 249.643631,45.174522 
	C250.466171,46.290237 250.973679,47.526859 251.739899,48.891724 
	C250.921356,50.947163 249.844086,52.874367 248.992172,54.398407 
	C250.675751,56.029598 252.327774,57.630241 253.988373,59.619003 
z"/>
<path fill="#DFBD68" opacity="1.000000" stroke="none" 
	d="
M262.071259,129.940994 
	C262.364624,130.473633 262.912720,131.005539 262.914276,131.539032 
	C262.960052,147.140350 262.951324,162.741837 262.951324,178.666946 
	C254.933105,178.666946 247.222031,178.666946 239.031647,178.666946 
	C239.031647,169.398895 239.031647,160.144226 239.311035,150.714050 
	C239.783691,151.690201 239.976990,152.841888 240.129608,154.458267 
	C240.123657,159.289627 240.158356,163.656296 240.147842,168.448395 
	C240.126480,170.587189 240.150314,172.300507 240.152435,174.397552 
	C240.153687,175.548935 240.176651,176.316574 240.283951,177.234711 
	C240.511185,177.572433 240.691895,177.710129 241.372040,177.835968 
	C245.211227,177.875854 248.588791,177.878052 252.395447,177.916931 
	C258.190430,179.019119 260.527832,176.224915 261.187653,171.351166 
	C261.475342,169.226105 261.676666,167.089371 261.941284,164.542267 
	C261.942810,162.739563 261.920288,161.352524 261.906250,159.724670 
	C261.914703,159.483856 261.882660,159.002045 261.908020,158.558563 
	C261.922150,155.746674 261.910889,153.378250 261.919678,150.548904 
	C261.911835,146.389099 261.883942,142.690216 261.877167,138.617340 
	C261.888733,137.494675 261.879211,136.746017 261.904114,135.623444 
	C261.922424,134.500168 261.906250,133.750809 261.915192,132.652496 
	C261.944794,131.608276 261.949249,130.913025 262.015686,130.162415 
	C262.077667,130.107040 262.071259,129.940994 262.071259,129.940994 
z"/>
<path fill="#D29015" opacity="1.000000" stroke="none" 
	d="
M130.675308,82.006943 
	C130.649506,85.441750 130.016464,88.716423 130.090454,91.975044 
	C130.221725,97.755692 127.819290,101.048492 121.845299,102.481804 
	C121.267235,102.620499 120.746262,102.997108 120.096069,103.532402 
	C119.089645,103.065346 118.185951,102.329178 117.129288,101.308029 
	C120.098785,99.623055 124.644623,100.297562 125.409973,95.446709 
	C125.727341,93.435143 126.502167,90.934120 125.675209,89.413795 
	C123.581718,85.565033 124.619057,82.877686 127.809769,80.119629 
	C128.863907,80.568176 129.625229,81.203880 130.675308,82.006943 
z"/>
<path fill="#D29015" opacity="1.000000" stroke="none" 
	d="
M295.987762,126.021729 
	C301.789062,122.720009 307.590393,119.418297 313.743225,116.049034 
	C314.285828,117.872986 314.476868,119.764496 313.981354,121.906448 
	C309.612183,124.185699 305.939941,126.233673 302.243195,128.236435 
	C299.851501,129.532196 297.423950,130.761826 295.001892,131.637573 
	C294.998444,130.487518 295.005585,129.720993 295.223877,128.716797 
	C295.619293,127.659988 295.803528,126.840858 295.987762,126.021729 
z"/>
<path fill="#DC9E22" opacity="1.000000" stroke="none" 
	d="
M240.091827,135.980927 
	C242.918182,134.940598 245.939438,134.245575 248.528351,132.784485 
	C253.203568,130.145950 257.620392,127.049515 262.481262,124.071236 
	C262.550812,125.721024 262.284180,127.443886 262.044403,129.553864 
	C262.071259,129.940994 262.077667,130.107040 261.634705,130.105042 
	C258.575439,131.269455 255.858780,132.255264 253.364166,133.640839 
	C248.570038,136.303619 243.901733,139.192932 239.181229,141.988297 
	C239.137207,140.297714 239.093170,138.607117 239.335785,136.470032 
	C239.622437,136.023514 240.091827,135.980942 240.091827,135.980927 
z"/>
<path fill="#E49E1F" opacity="1.000000" stroke="none" 
	d="
M124.548615,24.096226 
	C125.111839,28.926582 125.316483,33.686531 125.235504,38.441620 
	C125.218445,39.443027 124.153267,40.426582 123.307312,41.609657 
	C120.651733,41.847466 118.259895,41.893990 115.420868,41.880356 
	C114.973694,41.820202 114.996269,41.415997 115.418877,41.211128 
	C117.119301,40.496056 119.487061,40.015053 119.501633,39.471016 
	C119.613167,35.306812 119.940323,30.913216 118.702888,27.073557 
	C118.260155,25.699780 113.691803,25.655598 111.006477,25.004555 
	C111.006477,25.004555 110.999535,25.000458 111.002777,24.798256 
	C111.006012,24.596052 111.007629,24.198208 111.007629,24.198208 
	C115.367867,24.140167 119.728104,24.082129 124.548615,24.096226 
z"/>
<path fill="#CF8A0D" opacity="1.000000" stroke="none" 
	d="
M295.012482,132.021088 
	C297.423950,130.761826 299.851501,129.532196 302.243195,128.236435 
	C305.939941,126.233673 309.612183,124.185699 313.657349,122.109322 
	C313.993408,124.080727 313.966919,126.099709 313.876160,128.548386 
	C309.348206,127.042412 306.867065,130.405792 303.855255,132.580093 
	C301.412231,134.343765 299.499207,138.060120 295.260132,134.842651 
	C295.009735,133.517014 295.011108,132.769043 295.012482,132.021088 
z"/>
<path fill="#EFB02C" opacity="1.000000" stroke="none" 
	d="
M109.267761,171.023010 
	C108.464508,169.766861 108.136063,167.614334 107.343925,167.427460 
	C101.560715,166.063187 95.684387,165.093719 89.410095,163.600922 
	C88.989899,162.143433 88.997078,161.084641 89.004257,160.025848 
	C94.594078,161.074585 100.179298,162.148880 105.776665,163.155670 
	C107.346664,163.438080 108.952400,163.521881 110.789246,163.898102 
	C110.921616,166.312683 110.806480,168.525940 110.369080,170.911102 
	C109.873840,171.067566 109.700867,171.052124 109.267761,171.023010 
z"/>
<path fill="#DC9E22" opacity="1.000000" stroke="none" 
	d="
M238.658768,58.077225 
	C239.136093,57.941273 239.310898,57.959057 239.748276,58.001534 
	C240.505814,60.121010 240.676254,62.372829 241.591492,64.264244 
	C242.424881,65.986481 244.066818,67.317467 245.527679,69.174652 
	C245.135162,70.354843 244.567307,71.181297 243.999451,72.007751 
	C242.952744,72.458290 241.926971,72.967705 240.855423,73.348328 
	C237.628082,74.494736 235.629471,74.180481 236.445709,69.907181 
	C236.651367,68.830421 235.894836,67.569885 235.292358,66.196396 
	C234.739426,65.477234 234.474594,64.955490 234.087967,64.167702 
	C235.429535,62.011429 236.892883,60.121197 238.658768,58.077225 
z"/>
<path fill="#DFAB38" opacity="1.000000" stroke="none" 
	d="
M220.527466,41.000542 
	C223.020096,41.005978 225.060944,41.028004 227.937012,41.052879 
	C229.832016,41.056202 230.891815,41.056671 231.951614,41.057140 
	C234.999237,41.064510 238.046860,41.071880 241.549072,41.028542 
	C240.635544,41.273521 239.268188,41.823505 237.899216,41.827583 
	C206.237625,41.922009 174.575882,41.957130 142.448151,41.930756 
	C142.459000,41.594437 142.935867,41.330608 144.130188,41.031544 
	C147.204514,40.998878 149.561356,41.001450 152.395325,41.019527 
	C158.598602,41.025539 164.324753,41.016048 170.512436,41.015255 
	C175.337692,41.009724 179.701401,40.995495 184.065125,40.981270 
	C187.080765,40.982033 190.096390,40.982796 193.566513,40.971550 
	C196.715317,40.965710 199.409622,40.971870 202.553894,40.967712 
	C205.371964,40.968502 207.740082,40.979614 210.551437,40.977318 
	C214.021683,40.981647 217.048676,40.999390 220.527466,41.000542 
z"/>
<path fill="#E49E1F" opacity="1.000000" stroke="none" 
	d="
M244.239059,72.249504 
	C244.567307,71.181297 245.135162,70.354843 245.851028,69.266403 
	C247.398132,68.308609 248.735916,67.414429 250.209305,66.959023 
	C253.115479,66.060753 256.085266,65.958626 257.758911,62.392162 
	C259.022369,59.699787 261.939880,59.490276 264.732422,61.884739 
	C263.891663,63.628216 262.756134,65.187790 261.120483,67.013901 
	C260.374695,67.488983 260.178864,67.736923 260.032898,68.024261 
	C260.032898,68.024261 260.002197,68.002800 259.815094,68.149918 
	C259.379272,68.504189 259.181671,68.752068 259.035156,69.040688 
	C259.035156,69.040688 259.015930,69.034416 259.022827,69.050667 
	C255.510834,68.001556 252.609985,68.641106 250.415482,71.862305 
	C248.773560,74.272408 246.669952,74.274895 244.239059,72.249504 
z"/>
<path fill="#DC9212" opacity="1.000000" stroke="none" 
	d="
M291.319122,45.973228 
	C293.133209,44.362568 295.301208,42.972153 297.323303,41.394756 
	C299.837585,39.433414 303.237366,37.845531 301.239655,33.292076 
	C301.022736,32.839668 301.019745,32.671944 301.012390,32.252640 
	C302.123352,31.344494 303.238678,30.687923 305.023254,30.015209 
	C306.126892,29.985649 306.561249,29.972233 306.995636,29.958815 
	C306.995636,29.958815 307.048309,29.956352 307.172485,30.174072 
	C307.492584,30.630259 307.729218,30.817087 308.006653,30.952278 
	C308.006653,30.952278 308.050751,30.954901 308.036499,31.387108 
	C308.449524,37.669224 304.704437,40.659279 300.340790,43.402302 
	C298.374146,44.638569 296.768341,46.448898 294.729675,47.994209 
	C294.281219,47.982010 294.101898,47.974365 293.922577,47.966728 
	C293.151123,47.347988 292.379700,46.729248 291.319122,45.973228 
z"/>
<path fill="#D58B0D" opacity="1.000000" stroke="none" 
	d="
M80.103928,181.322754 
	C85.038582,183.579391 91.392494,181.447281 95.634979,185.934418 
	C96.699379,187.060211 97.791931,188.159378 98.940445,189.623947 
	C93.894226,189.300125 88.787636,188.545349 83.659943,187.983017 
	C81.496864,187.745789 78.850182,188.834869 78.094017,185.167465 
	C78.597984,183.847977 79.307549,182.748459 80.103928,181.322754 
z"/>
<path fill="#F0BA38" opacity="1.000000" stroke="none" 
	d="
M261.869690,135.997345 
	C261.879211,136.746017 261.888733,137.494675 261.542847,138.689316 
	C258.582733,140.794937 255.896515,142.341019 253.391220,144.139160 
	C248.926575,147.343613 244.571289,150.700455 240.170273,153.993561 
	C239.976990,152.841888 239.783691,151.690201 239.389297,150.248550 
	C239.142639,148.897324 239.097107,147.836075 239.420441,146.389587 
	C240.191025,146.010941 240.592728,146.017563 241.015991,146.349884 
	C243.016693,150.858032 244.626541,147.232224 246.110916,146.300247 
	C251.425217,142.963699 256.625977,139.446320 261.869690,135.997345 
z"/>
<path fill="#CF8406" opacity="1.000000" stroke="none" 
	d="
M231.966599,40.592598 
	C230.891815,41.056671 229.832016,41.056202 228.373199,41.035385 
	C227.316025,35.696934 226.657852,30.378824 225.997986,24.611021 
	C227.385498,24.118431 228.774689,24.075537 230.575577,24.103964 
	C231.318710,29.492874 231.650146,34.810463 231.966599,40.592598 
z"/>
<path fill="#E1A829" opacity="1.000000" stroke="none" 
	d="
M240.994415,146.024200 
	C240.592728,146.017563 240.191025,146.010941 239.488190,145.994202 
	C239.137756,144.917099 239.088470,143.850128 239.110199,142.385712 
	C243.901733,139.192932 248.570038,136.303619 253.364166,133.640839 
	C255.858780,132.255264 258.575439,131.269455 261.572754,130.160416 
	C261.949249,130.913025 261.944794,131.608276 261.554230,132.671326 
	C259.345062,133.762314 257.311310,134.180069 255.737823,135.265182 
	C250.731201,138.717880 245.895920,142.419037 240.994415,146.024200 
z"/>
<path fill="#DA991D" opacity="1.000000" stroke="none" 
	d="
M294.998810,47.998760 
	C296.768341,46.448898 298.374146,44.638569 300.340790,43.402302 
	C304.704437,40.659279 308.449524,37.669224 308.038757,31.409077 
	C309.702179,33.714943 311.349060,36.431049 313.009705,39.513641 
	C313.005646,40.066204 312.987885,40.252285 312.554382,40.720345 
	C309.676819,41.837711 307.160736,42.543018 304.766174,43.540028 
	C301.465576,44.914246 298.256714,46.508759 295.004669,48.004875 
	C295.000793,48.000847 294.998810,47.998760 294.998810,47.998760 
z"/>
<path fill="#D29015" opacity="1.000000" stroke="none" 
	d="
M186.358002,143.881714 
	C182.818848,139.526001 186.549118,138.622925 189.237152,137.169403 
	C192.622910,135.338608 195.983490,133.461273 199.543625,131.500076 
	C199.580444,131.654526 199.787506,132.522842 200.001282,133.735809 
	C195.577545,137.368332 191.147125,140.656204 186.358002,143.881714 
z"/>
<path fill="#B77B28" opacity="1.000000" stroke="none" 
	d="
M295.001892,131.637573 
	C295.011108,132.769043 295.009735,133.517014 295.023865,134.639404 
	C295.042358,137.702316 295.045380,140.390793 295.040405,143.997375 
	C295.020782,150.274307 295.009186,155.633148 294.992340,161.329178 
	C294.992645,162.116028 294.998169,162.565704 295.001953,163.344818 
	C295.008636,164.113373 295.017029,164.552521 295.025391,165.244431 
	C295.031921,165.665604 295.038452,165.834000 295.042389,166.335052 
	C295.042511,167.111328 295.045258,167.554932 295.032623,168.461349 
	C295.022064,172.952713 295.026886,176.981247 295.026062,181.452927 
	C295.026337,184.260727 295.032227,186.625381 295.038086,188.990036 
	C295.019531,189.739609 295.000946,190.489197 294.976746,191.613434 
	C294.971100,191.988083 294.591705,192.014572 294.401917,192.026764 
	C294.134399,169.652725 294.056641,147.266495 294.066406,124.414909 
	C294.153931,123.949554 294.570221,124.015686 294.777863,124.051811 
	C294.981384,124.534088 294.977264,124.980247 294.982117,126.117325 
	C294.998322,127.523651 295.005524,128.239059 295.012756,128.954468 
	C295.005585,129.720993 294.998444,130.487518 295.001892,131.637573 
z"/>
<path fill="#DFAB38" opacity="1.000000" stroke="none" 
	d="
M295.015717,110.026878 
	C294.861938,111.158119 294.708160,112.289352 294.367065,113.709366 
	C294.120209,92.647423 294.060608,71.296707 294.233276,49.477737 
	C294.644379,49.011250 294.823273,49.013020 295.006042,49.476128 
	C295.023956,53.920403 295.037994,57.903343 295.052002,61.886284 
	C295.038635,63.948902 295.025269,66.011520 295.021820,68.512497 
	C295.016510,70.989708 295.001251,73.028557 294.979095,75.977615 
	C294.975647,82.940834 294.979065,88.993858 294.979065,95.470581 
	C294.984161,97.601845 294.992706,99.309418 295.002075,101.272552 
	C295.006165,101.698479 295.009399,101.868828 295.010193,102.481384 
	C295.010437,105.291359 295.013062,107.659119 295.015717,110.026878 
z"/>
<path fill="#DFA62C" opacity="1.000000" stroke="none" 
	d="
M249.388977,31.093575 
	C248.017365,29.011753 247.012131,26.860062 246.016556,24.310093 
	C249.535019,23.911819 253.043808,23.911819 256.552612,23.911819 
	C256.752472,24.587521 256.952332,25.263224 257.152222,25.938925 
	C254.686600,27.633850 252.220978,29.328777 249.388977,31.093575 
z"/>
<path fill="#DFBD68" opacity="1.000000" stroke="none" 
	d="
M190.882416,23.592964 
	C189.704697,24.025980 188.289734,24.087103 185.984924,24.130524 
	C180.410126,24.139626 175.725189,24.166428 170.569641,24.145168 
	C163.719559,24.136667 157.340103,24.176222 150.508560,24.185875 
	C146.775192,24.151484 143.493881,24.146994 140.212585,24.142504 
	C140.212585,24.142504 140.085968,24.003017 140.010071,23.947298 
	C140.461441,23.597471 140.989090,23.045834 141.515900,23.046637 
	C157.892380,23.071577 174.268768,23.150467 190.882416,23.592964 
z"/>
<path fill="#B18639" opacity="1.000000" stroke="none" 
	d="
M262.916748,121.564102 
	C262.570221,121.534515 262.294891,121.037804 261.950806,120.260300 
	C261.912659,108.335434 261.985260,96.691139 261.923126,85.047546 
	C261.914948,83.510277 261.219421,81.976669 260.485413,80.337143 
	C260.702881,79.453171 261.277161,78.673416 261.851440,77.893661 
	C262.230255,78.004417 262.609100,78.115166 262.987946,78.225922 
	C262.987946,92.516266 262.987946,106.806618 262.916748,121.564102 
z"/>
<path fill="#DFBD68" opacity="1.000000" stroke="none" 
	d="
M314.815491,107.575417 
	C314.506409,106.595436 314.264771,105.144180 314.017700,102.907318 
	C313.980560,100.737892 313.948822,99.354080 313.944427,97.536346 
	C313.938690,95.069000 313.905640,93.035553 313.905579,90.574432 
	C313.914978,88.432846 313.891357,86.718933 313.891663,84.536919 
	C313.886566,77.698753 313.857574,71.328682 313.828552,64.958618 
	C313.877777,64.182007 313.926971,63.405403 314.002106,62.239967 
	C314.356659,63.364307 314.966400,64.876823 314.969910,66.390747 
	C315.001587,79.961731 314.926605,93.532974 314.815491,107.575417 
z"/>
<path fill="#B77B28" opacity="1.000000" stroke="none" 
	d="
M94.539490,40.984848 
	C97.114174,41.129459 99.219391,41.285851 101.650375,41.645535 
	C89.947205,41.884785 77.918266,41.920738 65.417999,41.886559 
	C71.843056,41.548290 78.738503,41.250820 85.636314,41.026279 
	C88.444893,40.934853 91.258629,41.001762 94.539490,40.984848 
z"/>
<path fill="#050504" opacity="1.000000" stroke="none" 
	d="
M339.377563,220.733063 
	C338.035156,217.371689 340.411285,218.439621 341.282318,218.981979 
	C342.393250,219.673721 344.056885,221.564026 343.815674,221.986588 
	C342.654633,224.021027 340.932648,225.735336 338.232513,227.140427 
	C338.649170,225.099747 339.065796,223.059067 339.377563,220.733063 
z"/>
<path fill="#DFAB38" opacity="1.000000" stroke="none" 
	d="
M110.986992,107.476540 
	C110.984909,106.580910 110.992928,106.131645 110.976440,105.346695 
	C111.127708,104.507179 111.303482,104.003334 111.626999,103.275658 
	C111.852188,114.395668 111.929626,125.739502 111.935341,137.548187 
	C111.629837,137.819809 111.422485,137.601517 111.114944,137.170166 
	C110.985939,134.610382 110.983559,132.238586 110.981094,128.987213 
	C110.958618,126.077721 110.936211,124.047768 110.913803,122.017822 
	C110.933098,120.292053 110.952377,118.566277 110.955399,116.408218 
	C110.958458,113.291580 110.977776,110.607239 110.986992,107.476540 
z"/>
<path fill="#B18639" opacity="1.000000" stroke="none" 
	d="
M91.009178,24.061043 
	C79.615349,24.049236 68.221519,24.037428 56.349819,24.004686 
	C57.394783,23.662567 58.915390,23.076038 60.440804,23.063263 
	C70.325562,22.980497 80.211365,23.022696 90.556488,23.316021 
	C91.016159,23.608093 91.009178,24.061043 91.009178,24.061043 
z"/>
<path fill="#B18639" opacity="1.000000" stroke="none" 
	d="
M240.073685,135.575607 
	C240.091827,135.980942 239.622437,136.023514 239.388184,136.049866 
	C239.194595,124.867226 239.235275,113.658249 239.691162,102.315979 
	C240.106476,111.787537 240.106583,121.392380 240.145279,131.456329 
	C240.141083,133.000381 240.098312,134.085327 240.073685,135.575607 
z"/>
<path fill="#0E0E0E" opacity="1.000000" stroke="none" 
	d="
M77.539612,217.988647 
	C74.954147,218.329056 71.898781,218.950439 68.843903,218.948059 
	C61.453976,218.942307 54.064281,218.645630 46.333408,218.229599 
	C56.351528,217.990631 66.710732,217.988281 77.539612,217.988647 
z"/>
<path fill="#0E0E0E" opacity="1.000000" stroke="none" 
	d="
M300.683777,218.755127 
	C300.578918,219.006088 300.134949,219.014587 299.358795,219.033813 
	C290.910492,218.853622 282.794312,218.662704 274.338074,218.235046 
	C282.780182,218.169754 291.562439,218.341202 300.683777,218.755127 
z"/>
<path fill="#DFAB38" opacity="1.000000" stroke="none" 
	d="
M88.999435,159.629272 
	C88.997078,161.084641 88.989899,162.143433 88.978455,163.599792 
	C88.520599,164.255295 88.067017,164.513229 87.387337,164.903976 
	C87.440231,161.637512 87.719215,158.238220 88.078079,154.410095 
	C88.436844,155.731720 88.715729,157.482208 88.999435,159.629272 
z"/>
<path fill="#DFAB38" opacity="1.000000" stroke="none" 
	d="
M88.100937,135.488541 
	C88.449287,135.804901 88.725052,136.580368 89.009590,138.102325 
	C89.020401,140.565475 89.022438,142.282135 89.024475,143.998779 
	C88.864410,145.782455 88.704346,147.566116 88.352325,149.674835 
	C88.116364,145.315811 88.072357,140.631714 88.100937,135.488541 
z"/>
<path fill="#BF7E09" opacity="1.000000" stroke="none" 
	d="
M91.004318,24.297005 
	C91.009178,24.061043 91.016159,23.608093 91.022934,23.381821 
	C92.417595,23.110418 93.805496,23.065289 95.605972,23.098656 
	C96.013580,23.582001 96.008606,23.986851 96.004562,24.695492 
	C94.615120,25.000383 93.224739,25.001482 91.417709,25.003784 
	C91.001060,25.004990 90.999458,24.532967 91.004318,24.297005 
z"/>
<path fill="#0B0B0A" opacity="1.000000" stroke="none" 
	d="
M256.753723,218.791382 
	C255.828812,219.134583 254.657623,219.270905 253.241089,219.197311 
	C254.166306,218.853088 255.336868,218.718781 256.753723,218.791382 
z"/>
<path fill="#DA991D" opacity="1.000000" stroke="none" 
	d="
M110.680840,24.035568 
	C111.007629,24.198208 111.006012,24.596052 111.000580,24.794832 
	C109.745651,24.600330 108.496170,24.207050 107.106735,23.504028 
	C108.095871,23.420502 109.224960,23.646715 110.680840,24.035568 
z"/>
<path fill="#FAC53F" opacity="1.000000" stroke="none" 
	d="
M313.894897,60.608269 
	C313.705444,59.846588 313.585297,58.690071 313.639587,57.277447 
	C313.864075,58.085369 313.914154,59.149403 313.894897,60.608269 
z"/>
<path fill="#DFAB38" opacity="1.000000" stroke="none" 
	d="
M199.951965,99.699722 
	C199.975891,100.268379 199.767395,101.016876 199.238953,101.863617 
	C199.185837,101.267761 199.452667,100.573662 199.951965,99.699722 
z"/>
<path fill="#FAC53F" opacity="1.000000" stroke="none" 
	d="
M194.630722,24.133057 
	C194.807831,24.411282 194.593765,24.598366 194.172379,24.865990 
	C193.478455,24.819696 192.969437,24.667189 192.244400,24.354759 
	C192.772919,24.152424 193.517456,24.110006 194.630722,24.133057 
z"/>
<path fill="#DA991D" opacity="1.000000" stroke="none" 
	d="
M306.899170,29.683807 
	C306.561249,29.972233 306.126892,29.985649 305.368011,30.000877 
	C305.031952,29.537590 305.020386,29.072495 305.023071,28.259041 
	C305.625824,28.410055 306.214294,28.909428 306.899170,29.683807 
z"/>
<path fill="#CF8406" opacity="1.000000" stroke="none" 
	d="
M285.347900,45.886730 
	C285.559509,45.726063 286.092194,45.631931 286.796265,45.681602 
	C286.534790,45.868023 286.101868,45.910645 285.347900,45.886730 
z"/>
<path fill="#DA991D" opacity="1.000000" stroke="none" 
	d="
M295.002136,49.014790 
	C294.823273,49.013020 294.644379,49.011250 294.196960,49.011124 
	C293.772034,48.714279 293.615692,48.415787 293.690979,48.042007 
	C294.101898,47.974365 294.281219,47.982010 294.729675,47.994209 
	C294.998810,47.998760 295.000793,48.000847 295.003601,48.256294 
	C295.004974,48.679428 295.003571,48.847107 295.002136,49.014790 
z"/>
<path fill="#B77B28" opacity="1.000000" stroke="none" 
	d="
M62.293365,42.853901 
	C62.500561,42.535362 63.033039,42.284470 63.865356,42.012299 
	C63.649677,42.301197 63.134163,42.611374 62.293365,42.853901 
z"/>
<path fill="#D09019" opacity="1.000000" stroke="none" 
	d="
M41.017986,204.345642 
	C41.229088,204.241562 41.470081,204.428177 41.799873,204.858276 
	C41.566807,205.042770 41.286541,204.887619 41.017986,204.345642 
z"/>
<path fill="#DFAB38" opacity="1.000000" stroke="none" 
	d="
M87.689079,150.972961 
	C87.956085,151.086731 87.963982,151.293671 87.959885,151.811188 
	C87.775253,151.769897 87.602615,151.418015 87.689079,150.972961 
z"/>
<path fill="#DFA62C" opacity="1.000000" stroke="none" 
	d="
M245.993561,23.771061 
	C245.839508,23.836544 245.589310,23.665276 245.167343,23.346317 
	C245.302078,23.301905 245.602676,23.413799 245.993561,23.771061 
z"/>
<path fill="#DFAB38" opacity="1.000000" stroke="none" 
	d="
M197.685394,103.004021 
	C197.792831,103.224136 197.598740,103.472214 197.144531,103.798920 
	C197.109482,103.641563 197.275970,103.359703 197.685394,103.004021 
z"/>
<path fill="#D29015" opacity="1.000000" stroke="none" 
	d="
M127.851585,78.744354 
	C127.596344,78.816582 127.401802,78.598434 127.147079,78.149918 
	C127.322365,78.133057 127.597496,78.311195 127.851585,78.744354 
z"/>
<path fill="#E0A428" opacity="1.000000" stroke="none" 
	d="
M259.285187,68.971848 
	C259.181671,68.752068 259.379272,68.504189 259.826904,68.164757 
	C259.862305,68.322655 259.698761,68.612831 259.285187,68.971848 
z"/>
<path fill="#E0A428" opacity="1.000000" stroke="none" 
	d="
M260.278839,67.949860 
	C260.178864,67.736923 260.374695,67.488983 260.816498,67.145905 
	C260.850006,67.299408 260.687378,67.587433 260.278839,67.949860 
z"/>
<path fill="#DFAB38" opacity="1.000000" stroke="none" 
	d="
M86.712524,165.951889 
	C86.857742,166.152664 86.699501,166.417542 86.320282,166.811676 
	C86.256317,166.664734 86.359573,166.356415 86.712524,165.951889 
z"/>
<path fill="#DA991D" opacity="1.000000" stroke="none" 
	d="
M307.944366,30.712912 
	C307.729218,30.817087 307.492584,30.630259 307.174133,30.200380 
	C307.415924,30.007412 307.692749,30.162271 307.944366,30.712912 
z"/>
<path fill="#D29015" opacity="1.000000" stroke="none" 
	d="
M250.682373,44.107079 
	C250.803467,44.327991 250.638046,44.548145 250.232422,44.830681 
	C250.028564,44.594799 250.163101,44.332554 250.682373,44.107079 
z"/>
<path fill="#DA991D" opacity="1.000000" stroke="none" 
	d="
M272.007751,53.988827 
	C272.180359,53.993271 272.352997,53.997719 272.785034,54.006969 
	C272.871307,54.309006 272.698242,54.606232 272.274811,54.995308 
	C272.017273,54.907372 272.010071,54.727589 272.001343,54.273911 
	C271.999817,54.000015 272.007751,53.988827 272.007751,53.988827 
z"/>
<path fill="#C78507" opacity="1.000000" stroke="none" 
	d="
M38.336761,86.123466 
	C37.809792,83.737946 37.473274,81.473633 37.466713,79.208366 
	C37.444641,71.587463 37.517933,63.965965 37.604343,56.345261 
	C37.629303,54.143776 37.821129,51.944180 37.976826,48.973545 
	C41.553432,50.991585 44.498192,52.197197 46.808739,54.152317 
	C47.936069,55.106239 48.613068,57.662228 48.201981,59.131607 
	C47.450596,61.817333 46.372921,64.118584 49.043400,66.339371 
	C49.557583,66.766968 49.993561,68.154144 49.707962,68.544937 
	C46.627941,72.759407 49.537537,76.423538 50.508972,80.310341 
	C50.939934,82.034637 50.648365,83.927582 50.814575,85.732018 
	C51.583435,94.078926 52.352287,102.426689 53.273376,110.757309 
	C53.356709,111.511002 54.525970,112.144623 55.532234,112.935089 
	C55.519428,124.328880 55.165318,135.621567 54.811207,146.914261 
	C54.286060,146.928375 53.760910,146.942490 53.235760,146.956604 
	C52.641930,139.694061 52.072323,132.429398 51.436569,125.170532 
	C51.285042,123.440384 51.384369,121.453140 50.565056,120.054794 
	C45.285496,111.044052 41.669727,101.552818 40.841030,91.043709 
	C40.711193,89.397278 39.428185,87.841782 38.336761,86.123466 
z"/>
<path fill="#CF8A0D" opacity="1.000000" stroke="none" 
	d="
M54.285736,210.806198 
	C51.562977,206.182983 49.106300,201.229630 52.197544,195.931015 
	C53.189102,194.231415 55.504795,193.304306 57.590115,191.995483 
	C55.955765,195.720322 54.538754,199.236984 56.953758,203.709137 
	C57.736561,205.158752 55.454342,208.263489 54.285736,210.806198 
z"/>
<path fill="#C77A03" opacity="1.000000" stroke="none" 
	d="
M295.025421,164.991653 
	C295.017029,164.552521 295.008636,164.113373 295.167969,163.169540 
	C295.222961,162.107224 295.110291,161.549622 294.997589,160.992004 
	C295.009186,155.633148 295.020782,150.274307 295.054291,144.445343 
	C296.342407,143.769424 297.884094,143.954697 298.827301,143.290344 
	C302.959717,140.379593 307.391235,139.877762 312.570496,140.994263 
	C312.986603,150.807358 312.961212,160.620850 313.011658,170.433945 
	C313.025879,173.196243 313.121399,175.693314 309.537354,176.592972 
	C308.319946,176.898575 307.390594,178.530380 306.431030,179.643616 
	C304.892731,181.428299 303.355377,183.225708 301.980865,185.135254 
	C301.158844,186.277298 300.664001,187.651840 299.991608,188.905548 
	C299.484985,189.850235 298.930023,190.768951 298.396576,191.699234 
	C297.423676,190.971878 296.450745,190.244537 295.257996,189.253616 
	C295.032227,186.625381 295.026337,184.260727 295.251160,181.112839 
	C295.337219,176.219238 295.192627,172.108887 295.048004,167.998520 
	C295.045258,167.554932 295.042511,167.111328 295.143036,166.222778 
	C295.373474,165.469879 295.299866,165.207825 295.025421,164.991653 
z"/>
<path fill="#DFA62C" opacity="1.000000" stroke="none" 
	d="
M215.374298,96.001740 
	C215.321335,94.901566 215.643295,93.803749 215.974670,92.360260 
	C217.749039,91.354675 219.514008,90.694763 221.639496,90.017426 
	C222.000000,90.000000 222.001831,90.001663 222.001831,90.001663 
	C220.711700,91.779152 219.421585,93.556648 218.064972,95.668144 
	C217.248718,96.002792 216.498978,96.003441 215.374298,96.001740 
z"/>
<path fill="#EFB02C" opacity="1.000000" stroke="none" 
	d="
M89.431686,144.000229 
	C89.022438,142.282135 89.020401,140.565475 89.022430,138.418945 
	C91.963966,135.879257 94.936775,133.816589 97.830475,131.648361 
	C102.002625,128.522186 106.117325,125.319321 110.585175,122.083496 
	C110.936211,124.047768 110.958618,126.077721 110.971268,128.542023 
	C106.663765,132.795303 102.548470,136.853104 97.991920,140.333176 
	C95.685616,142.094620 92.582024,142.812164 89.431686,144.000229 
z"/>
<path fill="#F0BA38" opacity="1.000000" stroke="none" 
	d="
M134.273163,115.188156 
	C136.884308,111.533447 139.599609,107.897324 142.772934,104.718414 
	C143.556732,103.933235 145.829071,104.633965 147.702271,104.817108 
	C147.361435,112.266060 144.462204,114.507797 134.273163,115.188156 
z"/>
<path fill="#DFA62C" opacity="1.000000" stroke="none" 
	d="
M221.999146,89.999084 
	C222.326065,89.565636 222.653824,89.133110 222.981583,88.700577 
	C223.089111,88.797302 223.196640,88.894028 223.304169,88.990761 
	C223.024536,89.291054 222.744904,89.591354 222.233551,89.946655 
	C222.001831,90.001663 222.000000,90.000000 221.999146,89.999084 
z"/>
<path fill="#DA991D" opacity="1.000000" stroke="none" 
	d="
M271.994141,54.004120 
	C271.988464,54.008228 271.729523,53.836983 271.729523,53.836983 
	C271.729523,53.836983 271.925171,53.845116 271.966461,53.916969 
	C272.007751,53.988827 271.999817,54.000015 271.994141,54.004120 
z"/>
<path fill="#E49E1F" opacity="1.000000" stroke="none" 
	d="
M295.006042,49.476128 
	C295.003571,48.847107 295.004974,48.679428 295.007477,48.260323 
	C298.256714,46.508759 301.465576,44.914246 304.766174,43.540028 
	C307.160736,42.543018 309.676819,41.837711 312.523895,40.999069 
	C310.147583,48.187618 303.726257,52.935596 296.469177,52.773041 
	C296.148346,55.564800 295.821350,58.409897 295.273193,61.570641 
	C295.037994,57.903343 295.023956,53.920403 295.006042,49.476128 
z"/>
<path fill="#FAC53F" opacity="1.000000" stroke="none" 
	d="
M313.467102,64.991394 
	C313.857574,71.328682 313.886566,77.698753 313.533600,84.557144 
	C310.464233,86.502678 307.768799,87.945305 305.091492,89.420792 
	C301.714081,91.282120 298.351471,93.170288 294.982483,95.046875 
	C294.979065,88.993858 294.975647,82.940834 294.985291,76.412476 
	C295.453247,71.174576 299.717377,70.480484 302.897278,68.884712 
	C306.131378,67.261719 309.689453,66.284286 313.467102,64.991394 
z"/>
<path fill="#F7B933" opacity="1.000000" stroke="none" 
	d="
M140.152664,24.556265 
	C143.493881,24.146994 146.775192,24.151484 150.598907,24.541069 
	C151.400284,30.285448 151.659241,35.644733 151.918213,41.004021 
	C149.561356,41.001450 147.204514,40.998878 144.402588,40.984035 
	C143.297791,38.635654 142.560242,36.318096 141.997986,33.958767 
	C141.288177,30.980330 140.721283,27.967831 140.152664,24.556265 
z"/>
<path fill="#FCBC37" opacity="1.000000" stroke="none" 
	d="
M171.040268,24.193228 
	C175.725189,24.166428 180.410126,24.139626 185.561829,24.165916 
	C185.365097,29.544413 184.701599,34.869816 184.051605,40.588245 
	C179.701401,40.995495 175.337692,41.009724 170.563766,40.645737 
	C173.123566,35.056957 172.716690,29.660107 171.040268,24.193228 
z"/>
<path fill="#DA991D" opacity="1.000000" stroke="none" 
	d="
M111.005402,25.411905 
	C113.691803,25.655598 118.260155,25.699780 118.702888,27.073557 
	C119.940323,30.913216 119.613167,35.306812 119.501633,39.471016 
	C119.487061,40.015053 117.119301,40.496056 115.427498,41.008896 
	C113.677124,35.947437 112.340729,30.883347 111.005402,25.411905 
z"/>
<path fill="#E7AD2F" opacity="1.000000" stroke="none" 
	d="
M313.917084,97.970261 
	C313.948822,99.354080 313.980560,100.737892 313.986572,102.534027 
	C309.449615,105.750305 304.880310,108.466454 300.452332,111.396255 
	C298.322479,112.805489 296.665009,113.410698 295.234344,110.268753 
	C295.013062,107.659119 295.010437,105.291359 295.225891,102.743317 
	C296.222382,105.886711 297.978485,106.207298 300.818970,104.638924 
	C305.105530,102.272095 309.543488,100.179443 313.917084,97.970261 
z"/>
<path fill="#CF8A0D" opacity="1.000000" stroke="none" 
	d="
M295.223877,128.716797 
	C295.005524,128.239059 294.998322,127.523651 294.997925,126.452515 
	C295.004730,126.096779 295.495178,126.043083 295.741455,126.032410 
	C295.803528,126.840858 295.619293,127.659988 295.223877,128.716797 
z"/>
<path fill="#FAC53F" opacity="1.000000" stroke="none" 
	d="
M240.129608,154.458267 
	C244.571289,150.700455 248.926575,147.343613 253.391220,144.139160 
	C255.896515,142.341019 258.582733,140.794937 261.521729,139.063309 
	C261.883942,142.690216 261.911835,146.389099 261.583313,150.611938 
	C258.254425,153.671371 255.345139,156.285965 252.293762,158.722656 
	C248.319183,161.896606 244.231857,164.929413 240.193054,168.022949 
	C240.158356,163.656296 240.123657,159.289627 240.129608,154.458267 
z"/>
<path fill="#ECB534" opacity="1.000000" stroke="none" 
	d="
M261.897797,159.965500 
	C261.920288,161.352524 261.942810,162.739563 261.587891,164.583984 
	C254.374390,166.617569 253.414703,172.424835 251.966354,177.880249 
	C248.588791,177.878052 245.211227,177.875854 241.272644,177.700745 
	C240.562836,177.354736 240.392166,177.206863 240.199631,177.084229 
	C240.176651,176.316574 240.153687,175.548935 240.518173,174.388977 
	C242.571228,172.916031 244.312729,171.935181 245.888412,170.736374 
	C250.967148,166.872421 255.984756,162.928131 261.146912,159.195038 
	C261.448212,159.603668 261.658173,159.800415 261.897797,159.965500 
z"/>
<path fill="#F0BA38" opacity="1.000000" stroke="none" 
	d="
M261.025940,159.014816 
	C255.984756,162.928131 250.967148,166.872421 245.888412,170.736374 
	C244.312729,171.935181 242.571228,172.916031 240.539902,174.005249 
	C240.150314,172.300507 240.126480,170.587189 240.147842,168.448395 
	C244.231857,164.929413 248.319183,161.896606 252.293762,158.722656 
	C255.345139,156.285965 258.254425,153.671371 261.563293,151.072876 
	C261.910889,153.378250 261.922150,155.746674 261.694397,158.561737 
	C261.455383,159.008392 261.025940,159.014816 261.025940,159.014816 
z"/>
<path fill="#E1A829" opacity="1.000000" stroke="none" 
	d="
M252.395447,177.916931 
	C253.414703,172.424835 254.374390,166.617569 261.563843,164.999649 
	C261.676666,167.089371 261.475342,169.226105 261.187653,171.351166 
	C260.527832,176.224915 258.190430,179.019119 252.395447,177.916931 
z"/>
<path fill="#ECB534" opacity="1.000000" stroke="none" 
	d="
M241.015991,146.349884 
	C245.895920,142.419037 250.731201,138.717880 255.737823,135.265182 
	C257.311310,134.180069 259.345062,133.762314 261.529114,133.020294 
	C261.906250,133.750809 261.922424,134.500168 261.904114,135.623428 
	C256.625977,139.446320 251.425217,142.963699 246.110916,146.300247 
	C244.626541,147.232224 243.016693,150.858032 241.015991,146.349884 
z"/>
<path fill="#E1A829" opacity="1.000000" stroke="none" 
	d="
M261.146912,159.195038 
	C261.025940,159.014816 261.455383,159.008392 261.669006,159.005219 
	C261.882660,159.002045 261.914703,159.483856 261.906250,159.724670 
	C261.658173,159.800415 261.448212,159.603668 261.146912,159.195038 
z"/>
<path fill="#F0BA38" opacity="1.000000" stroke="none" 
	d="
M240.283951,177.234711 
	C240.392166,177.206863 240.562836,177.354736 240.811005,177.663055 
	C240.691895,177.710129 240.511185,177.572433 240.283951,177.234711 
z"/>
<path fill="#FAC53F" opacity="1.000000" stroke="none" 
	d="
M170.569641,24.145168 
	C172.716690,29.660107 173.123566,35.056957 170.102234,40.637039 
	C164.324753,41.016048 158.598602,41.025539 152.395325,41.019524 
	C151.659241,35.644733 151.400284,30.285448 151.050980,24.570971 
	C157.340103,24.176222 163.719559,24.136667 170.569641,24.145168 
z"/>
<path fill="#BD7609" opacity="1.000000" stroke="none" 
	d="
M295.032623,168.461349 
	C295.192627,172.108887 295.337219,176.219238 295.256775,180.669693 
	C295.026886,176.981247 295.022064,172.952713 295.032623,168.461349 
z"/>
<path fill="#BD7609" opacity="1.000000" stroke="none" 
	d="
M294.992340,161.329178 
	C295.110291,161.549622 295.222961,162.107224 295.169678,162.840118 
	C294.998169,162.565704 294.992645,162.116028 294.992340,161.329178 
z"/>
<path fill="#BD7609" opacity="1.000000" stroke="none" 
	d="
M295.025391,165.244431 
	C295.299866,165.207825 295.373474,165.469879 295.145660,165.890106 
	C295.038452,165.834000 295.031921,165.665604 295.025391,165.244431 
z"/>
<path fill="#ECB534" opacity="1.000000" stroke="none" 
	d="
M313.944427,97.536346 
	C309.543488,100.179443 305.105530,102.272095 300.818970,104.638924 
	C297.978485,106.207298 296.222382,105.886711 295.228271,102.301109 
	C295.009399,101.868828 295.006165,101.698479 295.371399,101.248886 
	C299.167999,98.806633 302.520813,96.509567 306.049957,94.526253 
	C308.533325,93.130623 311.256500,92.161613 313.872589,91.002113 
	C313.905640,93.035553 313.938690,95.069000 313.944427,97.536346 
z"/>
<path fill="#F0BA38" opacity="1.000000" stroke="none" 
	d="
M313.905579,90.574432 
	C311.256500,92.161613 308.533325,93.130623 306.049957,94.526253 
	C302.520813,96.509567 299.167999,98.806633 295.370544,100.993317 
	C294.992706,99.309418 294.984161,97.601845 294.979065,95.470581 
	C298.351471,93.170288 301.714081,91.282120 305.091492,89.420792 
	C307.768799,87.945305 310.464233,86.502678 313.509705,85.025238 
	C313.891357,86.718933 313.914978,88.432846 313.905579,90.574432 
z"/>
</svg>